<svg width="31" height="31" viewBox="0 0 31 31" fill="none" xmlns="http://www.w3.org/2000/svg">
<g clip-path="url(#clip0_135_204)">
<path d="M14.4645 2.43667C14.1129 2.08516 13.6361 1.8877 13.1389 1.8877C12.6417 1.8877 12.1649 2.08516 11.8133 2.43667L1.22513 13.0229C1.04909 13.199 0.950195 13.4377 0.950195 13.6867C0.950195 13.9356 1.04909 14.1744 1.22513 14.3504C1.40117 14.5265 1.63992 14.6254 1.88888 14.6254C2.13783 14.6254 2.37659 14.5265 2.55263 14.3504L2.82638 14.0748V23.9992C2.82638 24.7451 3.1227 25.4605 3.65014 25.9879C4.17759 26.5154 4.89296 26.8117 5.63888 26.8117H6.67013C6.60747 26.5031 6.57606 26.189 6.57638 25.8742V18.2148C6.1285 18.0563 5.72807 17.7869 5.41245 17.4318C5.09683 17.0767 4.87631 16.6475 4.77146 16.1841C4.66661 15.7207 4.68086 15.2383 4.81287 14.7819C4.94488 14.3255 5.19035 13.91 5.52638 13.5742L15.5633 3.53542L14.4645 2.43667Z" fill="#236C13"/>
<path d="M17.4383 4.31167C17.7899 3.96016 18.2667 3.7627 18.7639 3.7627C19.2611 3.7627 19.7379 3.96016 20.0895 4.31167L23.4514 7.67354V5.24917C23.4514 5.00053 23.5502 4.76207 23.726 4.58626C23.9018 4.41044 24.1402 4.31167 24.3889 4.31167H26.2639C26.5125 4.31167 26.751 4.41044 26.9268 4.58626C27.1026 4.76207 27.2014 5.00053 27.2014 5.24917V11.4235L30.6776 14.8979C30.8537 15.074 30.9526 15.3127 30.9526 15.5617C30.9526 15.8106 30.8537 16.0494 30.6776 16.2254C30.5016 16.4015 30.2628 16.5004 30.0139 16.5004C29.7649 16.5004 29.5262 16.4015 29.3501 16.2254L29.0764 15.9498V25.8742C29.0764 26.6201 28.7801 27.3355 28.2526 27.8629C27.7252 28.3904 27.0098 28.6867 26.2639 28.6867H11.2639C10.518 28.6867 9.80259 28.3904 9.27514 27.8629C8.7477 27.3355 8.45138 26.6201 8.45138 25.8742V15.9498L8.17763 16.2254C8.09046 16.3126 7.98698 16.3817 7.8731 16.4289C7.75921 16.4761 7.63715 16.5004 7.51388 16.5004C7.39061 16.5004 7.26855 16.4761 7.15466 16.4289C7.04077 16.3817 6.93729 16.3126 6.85013 16.2254C6.76296 16.1383 6.69382 16.0348 6.64665 15.9209C6.59948 15.807 6.5752 15.6849 6.5752 15.5617C6.5752 15.4384 6.59948 15.3163 6.64665 15.2025C6.69382 15.0886 6.76296 14.9851 6.85013 14.8979L17.4383 4.31167Z" fill="#236C13"/>
</g>
<defs>
<clipPath id="clip0_135_204">
<rect width="30" height="30" fill="white" transform="translate(0.951172 0.561523)"/>
</clipPath>
</defs>
</svg>
