<svg width="31" height="31" viewBox="0 0 31 31" fill="none" xmlns="http://www.w3.org/2000/svg">
<path d="M3.76367 15.5127C3.76367 12.2804 5.04771 9.18043 7.33331 6.89483C9.61891 4.60923 12.7188 3.3252 15.9512 3.3252C19.1835 3.3252 22.2834 4.60923 24.569 6.89483C26.8546 9.18043 28.1387 12.2804 28.1387 15.5127C28.1387 18.745 26.8546 21.845 24.569 24.1306C22.2834 26.4162 19.1835 27.7002 15.9512 27.7002C12.7188 27.7002 9.61891 26.4162 7.33331 24.1306C5.04771 21.845 3.76367 18.745 3.76367 15.5127ZM11.5318 6.19395C10.1633 6.8434 8.95463 7.78637 7.9918 8.95582L9.20492 12.9008L11.0912 13.5289L15.0137 10.5477V8.5152L11.5318 6.19395ZM5.70617 16.7014C5.89367 18.3233 6.45617 19.8327 7.30555 21.1358H10.8755L12.0662 19.9452L10.523 15.3139L8.60305 14.6746L5.70617 16.7014ZM13.8624 25.6114C15.2403 25.8964 16.662 25.8964 18.0399 25.6114L19.5212 22.2814L18.3755 21.1377H13.5268L12.383 22.2814L13.8624 25.6114ZM24.5949 21.1377C25.4354 19.8456 25.9755 18.3816 26.1755 16.8533L23.2824 14.6821L21.3793 15.3158L19.8362 19.9471L21.0268 21.1377H24.5949ZM23.8824 8.92582C22.9242 7.76961 21.725 6.83662 20.3687 6.19207L16.8887 8.5152V10.5477L20.8112 13.5289L22.6937 12.9027L23.8824 8.92582Z" fill="#236C13"/>
</svg>
