<svg width="30" height="30" viewBox="0 0 30 30" fill="none" xmlns="http://www.w3.org/2000/svg">
<path d="M7.81055 1.95801L4.56387 2.76895L2.02734 8.68984L3.97793 9.99062L5.58691 6.77383L6.58594 7.06094L5.70293 15.8559H14.3672L14.9062 10.7055L14.959 10.2309H15.2227L14.9062 7.06094L15.9082 6.77383L17.5137 9.99062L19.4648 8.68984L16.9277 2.76895L13.6816 1.95801C13.3594 2.18477 12.9668 2.32188 12.5391 2.42383C11.9883 2.55332 11.3672 2.61367 10.7461 2.61367C10.125 2.61367 9.50391 2.55332 8.95313 2.42383C8.52539 2.32188 8.13281 2.18535 7.81055 1.95801ZM15.9082 11.2855L15.8203 12.1059H26.2969L26.209 11.2855H15.9082ZM15.709 13.1605L14.1445 28.0434H17.8184L20.543 15.3344H21.5742L24.2988 28.0434H27.9727L26.4082 13.1605H15.709Z" fill="#236C13"/>
</svg>
