<svg width="30" height="31" viewBox="0 0 30 31" fill="none" xmlns="http://www.w3.org/2000/svg">
<path d="M17.382 20.4305V17.1465C17.382 16.8813 17.2766 16.6269 17.0891 16.4394C16.9015 16.2518 16.6472 16.1465 16.382 16.1465H14.382C14.1168 16.1465 13.8624 16.2518 13.6749 16.4394C13.4873 16.6269 13.382 16.8813 13.382 17.1465V20.4285C11.8621 20.8172 10.4905 21.6452 9.43868 22.8091C8.38682 23.973 7.70136 25.4212 7.46798 26.9725C7.44517 27.1171 7.45393 27.2649 7.49368 27.4058C7.53342 27.5467 7.6032 27.6773 7.69822 27.7887C7.79324 27.9 7.91124 27.9895 8.04411 28.0509C8.17699 28.1123 8.32159 28.1443 8.46798 28.1445H22.312C22.4584 28.1443 22.603 28.1123 22.7358 28.0509C22.8687 27.9895 22.9867 27.9 23.0817 27.7887C23.1767 27.6773 23.2465 27.5467 23.2863 27.4058C23.326 27.2649 23.3348 27.1171 23.312 26.9725C23.0771 25.4195 22.3891 23.9703 21.3342 22.8066C20.2794 21.6429 18.9045 20.8163 17.382 20.4305ZM26.66 12.7045L21.66 2.70448C21.5777 2.53747 21.4504 2.39675 21.2924 2.29816C21.1345 2.19958 20.9522 2.14705 20.766 2.14648H9.99798C9.81276 2.14686 9.63129 2.19867 9.47379 2.29614C9.31629 2.3936 9.18895 2.53289 9.10598 2.69848L4.10598 12.6985C4.0298 12.8505 3.99364 13.0194 4.00092 13.1893C4.00819 13.3591 4.05865 13.5243 4.14753 13.6693C4.23642 13.8142 4.36079 13.9341 4.5089 14.0176C4.65701 14.1011 4.82396 14.1455 4.99398 14.1465H21.382V17.1465C21.382 17.4117 21.4873 17.6661 21.6749 17.8536C21.8624 18.0411 22.1168 18.1465 22.382 18.1465C22.6472 18.1465 22.9015 18.0411 23.0891 17.8536C23.2766 17.6661 23.382 17.4117 23.382 17.1465V14.1465H25.77C25.9393 14.1453 26.1056 14.1011 26.2533 14.0181C26.4009 13.935 26.525 13.8159 26.6139 13.6717C26.7029 13.5276 26.7538 13.3632 26.7618 13.194C26.7699 13.0249 26.7348 12.8564 26.66 12.7045Z" fill="#236C13"/>
</svg>
