<svg width="30" height="31" viewBox="0 0 30 31" fill="none" xmlns="http://www.w3.org/2000/svg">
<g clip-path="url(#clip0_137_25)">
<path d="M29.3996 10.932C29.3996 10.602 29.1296 10.332 28.7996 10.332H20.9996C20.6696 10.332 20.3996 10.062 20.3996 9.73203V1.93203C20.3996 1.60203 20.1296 1.33203 19.7996 1.33203H10.1996C9.86961 1.33203 9.59961 1.60203 9.59961 1.93203V9.73203C9.59961 10.062 9.32961 10.332 8.99961 10.332H1.19961C0.869609 10.332 0.599609 10.602 0.599609 10.932V20.532C0.599609 20.862 0.869609 21.132 1.19961 21.132H8.99961C9.32961 21.132 9.59961 21.402 9.59961 21.732V29.532C9.59961 29.862 9.86961 30.132 10.1996 30.132H19.7996C20.1296 30.132 20.3996 29.862 20.3996 29.532V21.732C20.3996 21.402 20.6696 21.132 20.9996 21.132H28.7996C29.1296 21.132 29.3996 20.862 29.3996 20.532V10.932Z" fill="#236C13"/>
</g>
<defs>
<clipPath id="clip0_137_25">
<rect width="30" height="30" fill="white" transform="translate(0 0.732422)"/>
</clipPath>
</defs>
</svg>
