<svg width="30" height="31" viewBox="0 0 30 31" fill="none" xmlns="http://www.w3.org/2000/svg">
  <g clip-path="url(#clip0_135_214)">
    <path fillRule="evenodd" clip-rule="evenodd"
      d="M10.2 5.36621C9.53901 5.36642 8.88982 5.54135 8.3182 5.87325C7.74658 6.20516 7.27285 6.68226 6.945 7.25621L4.45375 11.6162H3C2.86739 11.6162 2.74022 11.6689 2.64645 11.7627C2.55268 11.8564 2.5 11.9836 2.5 12.1162V12.71C2.49976 12.9332 2.5742 13.15 2.71147 13.3261C2.84874 13.5021 3.04095 13.6271 3.2575 13.6812L3.2875 13.6875C2.76555 14.7708 2.5672 15.9817 2.71625 17.175L3.6225 24.4262C3.69807 25.031 3.99195 25.5873 4.44887 25.9906C4.9058 26.3939 5.4943 26.6163 6.10375 26.6162H6.25C6.91304 26.6162 7.54893 26.3528 8.01777 25.884C8.48661 25.4151 8.75 24.7793 8.75 24.1162H21.25C21.25 24.7793 21.5134 25.4151 21.9822 25.884C22.4511 26.3528 23.087 26.6162 23.75 26.6162H23.8963C24.5057 26.6163 25.0942 26.3939 25.5511 25.9906C26.0081 25.5873 26.3019 25.031 26.3775 24.4262L27.2838 17.1762C27.4328 15.983 27.2345 14.772 26.7125 13.6887L26.7425 13.6812C26.959 13.6271 27.1513 13.5021 27.2885 13.3261C27.4258 13.15 27.5002 12.9332 27.5 12.71V12.1162C27.5 11.9836 27.4473 11.8564 27.3536 11.7627C27.2598 11.6689 27.1326 11.6162 27 11.6162H25.5463L23.055 7.25621C22.7272 6.68226 22.2534 6.20516 21.6818 5.87325C21.1102 5.54135 20.461 5.36642 19.8 5.36621H10.2ZM23.0275 12.2462L20.885 8.49621C20.7756 8.30471 20.6175 8.14556 20.4267 8.03491C20.236 7.92426 20.0193 7.86606 19.7988 7.86621H10.2013C9.98071 7.86606 9.76405 7.92426 9.57328 8.03491C9.3825 8.14556 9.22439 8.30471 9.115 8.49621L6.9725 12.2462C6.86393 12.4363 6.80717 12.6515 6.80791 12.8704C6.80865 13.0893 6.86686 13.3042 6.97672 13.4935C7.08657 13.6829 7.24422 13.84 7.43389 13.9493C7.62356 14.0586 7.8386 14.1161 8.0575 14.1162H21.9425C22.1614 14.1161 22.3764 14.0586 22.5661 13.9493C22.7558 13.84 22.9134 13.6829 23.0233 13.4935C23.1331 13.3042 23.1914 13.0893 23.1921 12.8704C23.1928 12.6515 23.1361 12.4363 23.0275 12.2462ZM6.25 19.165V18.29C6.24994 18.1817 6.27801 18.0752 6.33147 17.9811C6.38493 17.8869 6.46193 17.8082 6.55494 17.7528C6.64795 17.6973 6.75377 17.667 6.86203 17.6647C6.97029 17.6625 7.07727 17.6884 7.1725 17.74L10.6 19.59C11.0663 19.8425 10.8725 20.5512 10.3425 20.53L7.45 20.4137C7.12765 20.4008 6.82278 20.2638 6.59913 20.0313C6.37549 19.7988 6.25039 19.4888 6.25 19.1662V19.165ZM23.75 18.29V19.165C23.7503 19.488 23.6255 19.7986 23.4017 20.0316C23.178 20.2647 22.8728 20.402 22.55 20.415L19.6575 20.53C19.1275 20.5512 18.9325 19.8425 19.4 19.59L22.8275 17.74C22.9227 17.6884 23.0297 17.6625 23.138 17.6647C23.2462 17.667 23.3521 17.6973 23.4451 17.7528C23.5381 17.8082 23.6151 17.8869 23.6685 17.9811C23.722 18.0752 23.7501 18.1817 23.75 18.29Z"
      fill="#236C13" />
  </g>
  <defs>
    <clipPath id="clip0_135_214">
      <rect width="30" height="30" fill="white" transform="translate(0 0.366211)" />
    </clipPath>
  </defs>
</svg>