<svg width="60" height="60" viewBox="0 0 60 60" fill="none" xmlns="http://www.w3.org/2000/svg">
  <path fillRule="evenodd" clip-rule="evenodd"
    d="M44.175 21.9037C43.6477 22.4304 42.9328 22.7263 42.1875 22.7263C41.4422 22.7263 40.7273 22.4304 40.2 21.9037L32.8125 14.5163V42.1875C32.8125 42.9334 32.5162 43.6488 31.9887 44.1762C31.4613 44.7037 30.7459 45 30 45C29.2541 45 28.5387 44.7037 28.0113 44.1762C27.4838 43.6488 27.1875 42.9334 27.1875 42.1875V14.5163L19.8 21.9037C19.2668 22.4006 18.5617 22.671 17.833 22.6582C17.1044 22.6453 16.4092 22.3501 15.8939 21.8348C15.3786 21.3195 15.0834 20.6243 15.0706 19.8957C15.0577 19.1671 15.3282 18.4619 15.825 17.9288L28.0125 5.74125L30 3.75L31.9875 5.7375L44.175 17.925C44.4364 18.1862 44.6437 18.4963 44.7851 18.8377C44.9266 19.179 44.9994 19.5449 44.9994 19.9144C44.9994 20.2839 44.9266 20.6497 44.7851 20.9911C44.6437 21.3324 44.4364 21.6426 44.175 21.9037ZM9.375 36.5625C9.375 35.8166 9.07868 35.1012 8.55124 34.5738C8.02379 34.0463 7.30842 33.75 6.5625 33.75C5.81658 33.75 5.10121 34.0463 4.57376 34.5738C4.04632 35.1012 3.75 35.8166 3.75 36.5625V48.75C3.75 50.7391 4.54018 52.6468 5.9467 54.0533C7.35322 55.4598 9.26088 56.25 11.25 56.25H48.75C50.7391 56.25 52.6468 55.4598 54.0533 54.0533C55.4598 52.6468 56.25 50.7391 56.25 48.75V36.5625C56.25 35.8166 55.9537 35.1012 55.4262 34.5738C54.8988 34.0463 54.1834 33.75 53.4375 33.75C52.6916 33.75 51.9762 34.0463 51.4488 34.5738C50.9213 35.1012 50.625 35.8166 50.625 36.5625V48.75C50.625 49.2473 50.4275 49.7242 50.0758 50.0758C49.7242 50.4275 49.2473 50.625 48.75 50.625H11.25C10.7527 50.625 10.2758 50.4275 9.92418 50.0758C9.57254 49.7242 9.375 49.2473 9.375 48.75V36.5625Z"
    fill="#236C13" fill-opacity="0.5" />
</svg>