<svg width="30" height="31" viewBox="0 0 30 31" fill="none" xmlns="http://www.w3.org/2000/svg">
  <path fillRule="evenodd" clip-rule="evenodd"
    d="M27.5 20.7812V15.7812C27.5 12.2462 27.5 10.4775 26.4013 9.38C25.37 8.3475 23.7475 8.285 20.625 8.28125V28.2812C23.7475 28.2775 25.37 28.215 26.4013 27.1825C27.5 26.085 27.5 24.315 27.5 20.7812ZM23.75 14.5325C24.0815 14.5325 24.3995 14.6642 24.6339 14.8986C24.8683 15.133 25 15.451 25 15.7825C25 16.114 24.8683 16.432 24.6339 16.6664C24.3995 16.9008 24.0815 17.0325 23.75 17.0325C23.4185 17.0325 23.1005 16.9008 22.8661 16.6664C22.6317 16.432 22.5 16.114 22.5 15.7825C22.5 15.451 22.6317 15.133 22.8661 14.8986C23.1005 14.6642 23.4185 14.5325 23.75 14.5325ZM23.75 19.5325C24.0815 19.5325 24.3995 19.6642 24.6339 19.8986C24.8683 20.133 25 20.451 25 20.7825C25 21.114 24.8683 21.432 24.6339 21.6664C24.3995 21.9008 24.0815 22.0325 23.75 22.0325C23.4185 22.0325 23.1005 21.9008 22.8661 21.6664C22.6317 21.432 22.5 21.114 22.5 20.7825C22.5 20.451 22.6317 20.133 22.8661 19.8986C23.1005 19.6642 23.4185 19.5325 23.75 19.5325Z"
    fill="#236C13" />
  <path
    d="M19.4625 5.14171L16.7687 8.2817H18.75V28.2817H10C6.465 28.2817 4.69625 28.2817 3.59875 27.183C2.5 26.0855 2.5 24.3167 2.5 20.783V15.783C2.5 12.2455 2.5 10.478 3.59875 9.38046C4.69625 8.28171 6.465 8.2817 10 8.2817H13.23L10.5375 5.14171C10.3852 4.95192 10.3126 4.71034 10.3351 4.46802C10.3577 4.22571 10.4735 4.00165 10.6583 3.84322C10.843 3.68479 11.0821 3.6044 11.325 3.61905C11.5679 3.63369 11.7956 3.74223 11.96 3.92171L15 7.46671L18.0375 3.92171C18.1993 3.73274 18.4295 3.61578 18.6775 3.59656C18.9255 3.57733 19.171 3.65742 19.36 3.81921C19.549 3.98099 19.6659 4.21121 19.6851 4.45923C19.7044 4.70724 19.6243 4.95274 19.4625 5.14171Z"
    fill="#236C13" />
</svg>