<svg width="31" height="31" viewBox="0 0 31 31" fill="none" xmlns="http://www.w3.org/2000/svg">
<path d="M13.0042 1.04248C13.157 1.11276 13.291 1.21359 13.3967 1.33771C13.5025 1.46183 13.5773 1.60617 13.6158 1.76033C13.6573 1.92962 14.7973 6.45962 14.7973 9.49819C14.7973 11.5339 13.7773 13.3489 12.1896 14.5253C11.6127 14.9539 11.3358 15.421 11.3358 15.811V16.8525C11.3358 16.9025 11.3389 16.9496 11.345 16.9939C11.4235 17.5253 11.7073 19.4989 11.9727 21.5453C12.2335 23.5532 12.4896 25.7432 12.4896 26.641C12.4896 27.7777 12.0034 28.8678 11.1378 29.6715C10.2723 30.4752 9.09832 30.9268 7.87425 30.9268C6.65017 30.9268 5.47623 30.4752 4.61068 29.6715C3.74513 28.8678 3.25886 27.7777 3.25886 26.641C3.25886 25.741 3.51502 23.5553 3.77579 21.5453C4.04117 19.4989 4.32502 17.5253 4.40348 16.9939L4.41271 16.8525V15.811C4.41271 15.421 4.13579 14.9539 3.55886 14.5253C2.74536 13.9232 2.08847 13.1585 1.63701 12.2882C1.18555 11.4178 0.951126 10.4642 0.951172 9.49819C0.951172 6.47033 2.08194 1.9639 2.13271 1.76248C2.1927 1.52428 2.33784 1.31198 2.54445 1.16021C2.75106 1.00844 3.00696 0.926147 3.2704 0.926761C3.91656 0.926761 4.4404 1.41319 4.4404 2.01319V8.43747C4.43131 8.58218 4.45425 8.72708 4.50781 8.86324C4.56137 8.99939 4.64441 9.12391 4.75182 9.2291C4.85922 9.33429 4.9887 9.41792 5.13227 9.47483C5.27584 9.53174 5.43045 9.56073 5.58655 9.55999C5.74265 9.55926 5.89693 9.52882 6.03987 9.47057C6.18282 9.41231 6.31138 9.32746 6.41763 9.22127C6.52388 9.11507 6.60557 8.98979 6.65764 8.85314C6.70972 8.71649 6.73108 8.57137 6.7204 8.42676V1.99819C6.7204 1.71403 6.84197 1.44151 7.05836 1.24058C7.27474 1.03964 7.56823 0.926761 7.87425 0.926761C8.18027 0.926761 8.47375 1.03964 8.69014 1.24058C8.90653 1.44151 9.0281 1.71403 9.0281 1.99819V8.48247C9.03452 8.76379 9.16103 9.03122 9.3798 9.22592C9.59857 9.42063 9.89167 9.52666 10.1946 9.52069C10.4976 9.51472 10.7856 9.39725 10.9953 9.1941C11.2049 8.99096 11.3191 8.71879 11.3127 8.43747V2.0089C11.3127 1.41105 11.8342 0.926761 12.4804 0.926761C12.5312 0.926761 12.7573 0.926761 13.0042 1.04248ZM18.2589 10.5696C18.2589 8.01217 19.353 5.55947 21.3004 3.75109C23.2479 1.9427 25.8893 0.926761 28.6435 0.926761C28.9495 0.926761 29.243 1.03964 29.4594 1.24058C29.6758 1.44151 29.7973 1.71403 29.7973 1.99819V14.7975L29.8412 15.1768C30.0247 16.776 30.2009 18.3761 30.3696 19.9768C30.6535 22.6682 30.9512 25.6853 30.9512 26.641C30.9512 27.7777 30.4649 28.8678 29.5994 29.6715C28.7338 30.4752 27.5599 30.9268 26.3358 30.9268C25.1117 30.9268 23.9378 30.4752 23.0722 29.6715C22.2067 28.8678 21.7204 27.7777 21.7204 26.641C21.7204 25.6853 22.0181 22.6682 22.3019 19.9768C22.4473 18.6118 22.5927 17.3046 22.7012 16.336L22.7473 15.9268H20.5666C19.9545 15.9268 19.3675 15.701 18.9348 15.2991C18.502 14.8973 18.2589 14.3522 18.2589 13.7839V10.5696Z" fill="#236C13"/>
</svg>
