<svg width="142" height="160" viewBox="0 0 142 160" fill="none" xmlns="http://www.w3.org/2000/svg">
<path d="M105.758 0.0800697C105.386 -0.299928 92.0055 0.230069 80.3614 11.8C68.7172 23.3599 70.5086 36.6199 70.7708 36.9599C71.0329 37.2999 87.3741 37.8299 97.8058 24.3799C108.237 10.93 106.129 0.470068 105.758 0.0800697ZM141.957 117.409C141.433 116.449 116.561 105.07 118.877 83.1896C121.192 61.3098 137.173 55.2998 137.424 54.6498C137.676 53.9998 130.903 46.7498 123.727 43.0798C118.456 40.4949 112.625 39.0126 106.654 38.7399C105.474 38.7099 101.378 37.7899 92.9558 39.8999C87.4068 41.2899 74.8997 45.7898 71.4589 45.9698C68.0072 46.1498 57.7394 40.7499 46.696 39.3199C39.6287 38.0699 32.1353 40.6299 26.772 42.5999C21.4196 44.5598 11.2392 50.1398 4.11725 64.9697C-3.0047 79.7897 0.720122 103.27 3.38539 110.569C6.05066 117.869 10.2124 129.809 17.2907 138.529C23.5824 148.369 31.9278 155.199 35.4123 157.519C38.8968 159.839 48.7277 161.379 55.5438 158.189C61.0273 155.109 70.9237 153.339 74.8342 153.469C78.7338 153.599 86.4238 155.009 94.2994 158.859C100.537 160.829 106.435 160.009 112.345 157.809C118.254 155.599 126.807 147.219 136.791 130.229C140.577 122.329 142.3 118.056 141.957 117.409Z" fill="black"/>
</svg>
