<svg width="61" height="53" viewBox="0 0 61 53" fill="none" xmlns="http://www.w3.org/2000/svg">
<path d="M15.92 45.9688L15.9279 45.9715L13.0558 50.9458C12.0075 52.7617 9.68564 53.3838 7.8698 52.3355C6.05395 51.2871 5.43183 48.9653 6.48019 47.1494L8.59594 43.4849L8.79905 43.1332C9.16162 42.6121 10.0564 41.7124 11.8463 41.8817C11.8463 41.8817 16.0585 42.3388 16.3633 44.5281C16.3633 44.5281 16.4047 45.2483 15.92 45.9688ZM56.6544 33.2638H47.6986C47.0886 33.2228 46.8225 33.005 46.7175 32.8783L46.7109 32.8668L37.1241 16.2617L37.1116 16.2699L36.5368 15.4457C35.5944 14.0045 34.0981 17.6901 34.0981 17.6901C32.3115 21.7969 34.3518 26.4658 35.0628 27.877L48.3788 50.9409C49.4268 52.7564 51.7486 53.3789 53.5648 52.3302C55.3803 51.2819 56.0028 48.96 54.9541 47.1442L51.6246 41.3771C51.56 41.2373 51.4477 40.858 52.1306 40.8563H56.6544C58.7512 40.8563 60.4508 39.1566 60.4508 37.0599C60.4508 34.9632 58.7512 33.2638 56.6544 33.2638ZM39.2592 38.4243C39.2592 38.4243 39.7373 40.856 37.8877 40.856H4.78017C2.68345 40.856 0.983765 39.1563 0.983765 37.0596C0.983765 34.9629 2.68345 33.2632 4.78017 33.2632H13.2917C14.6659 33.1838 14.9914 32.3904 14.9914 32.3904L14.9993 32.3943L26.1096 13.1504L26.1063 13.1498C26.3088 12.778 26.1401 12.4266 26.1109 12.3711L22.4415 6.01569C21.3931 4.20017 22.0153 1.87803 23.8311 0.830003C25.647 -0.218029 27.9688 0.403441 29.0171 2.21928L30.7188 5.16683L32.4175 2.22453C33.4658 0.409018 35.7877 -0.213435 37.6035 0.835252C39.4193 1.88394 40.0415 4.2051 38.9931 6.02094L23.5325 32.7992C23.4649 32.9623 23.4442 33.2182 23.9473 33.2632H33.1886L33.1905 33.3534C33.1905 33.3534 38.5318 33.4364 39.2592 38.4243Z" fill="white"/>
</svg>
