<svg width="28" height="28" viewBox="0 0 28 28" fill="none" xmlns="http://www.w3.org/2000/svg">
<path d="M26.0789 8.91409C25.4216 7.34533 24.4653 5.91943 23.2634 4.71585C22.0651 3.51019 20.6417 2.55162 19.074 1.89456C17.468 1.21818 15.7424 0.87147 13.9998 0.875027H13.9412C12.1687 0.883816 10.4548 1.23538 8.84059 1.92678C7.28631 2.59059 5.87626 3.55086 4.68922 4.75393C3.49898 5.95479 2.55369 7.37571 1.90602 8.93753C1.23371 10.5616 0.893043 12.3038 0.904068 14.0615C0.912857 16.0948 1.39919 18.1133 2.30739 19.918V24.3711C2.30739 25.1153 2.9109 25.7188 3.65211 25.7188H8.09938C9.91248 26.6337 11.9133 27.1151 13.9441 27.125H14.0056C15.7576 27.125 17.4539 26.7852 19.0535 26.1201C20.6133 25.4709 22.0314 24.5235 23.2283 23.3311C24.4353 22.1328 25.3845 20.7324 26.0496 19.1709C26.7381 17.5537 27.0896 15.834 27.0984 14.0586C27.1043 12.2744 26.7586 10.543 26.0789 8.91409ZM8.15211 15.4063C7.37868 15.4063 6.74879 14.7764 6.74879 14C6.74879 13.2237 7.37868 12.5938 8.15211 12.5938C8.92555 12.5938 9.55544 13.2237 9.55544 14C9.55544 14.7764 8.92848 15.4063 8.15211 15.4063ZM13.9998 15.4063C13.2263 15.4063 12.5965 14.7764 12.5965 14C12.5965 13.2237 13.2263 12.5938 13.9998 12.5938C14.7732 12.5938 15.4031 13.2237 15.4031 14C15.4031 14.7764 14.7732 15.4063 13.9998 15.4063ZM19.8474 15.4063C19.074 15.4063 18.4441 14.7764 18.4441 14C18.4441 13.2237 19.074 12.5938 19.8474 12.5938C20.6209 12.5938 21.2507 13.2237 21.2507 14C21.2507 14.7764 20.6209 15.4063 19.8474 15.4063Z" fill="#F5F6FA"/>
</svg>
