<svg width="45" height="45" viewBox="0 0 45 45" fill="none" xmlns="http://www.w3.org/2000/svg">
<circle cx="22.5" cy="22.5" r="22.5" fill="#FF3D00" fill-opacity="0.2"/>
<path fill-rule="evenodd" clip-rule="evenodd" d="M15.75 17.248C15.0207 17.248 14.3212 17.5378 13.8055 18.0535C13.2897 18.5692 13 19.2687 13 19.998V28.998C13 29.7274 13.2897 30.4269 13.8055 30.9426C14.3212 31.4583 15.0207 31.748 15.75 31.748H29.75C30.4793 31.748 31.1788 31.4583 31.6945 30.9426C32.2103 30.4269 32.5 29.7274 32.5 28.998V19.998C32.5 19.2687 32.2103 18.5692 31.6945 18.0535C31.1788 17.5378 30.4793 17.248 29.75 17.248H15.75ZM27.25 23.248C26.9185 23.248 26.6005 23.3797 26.3661 23.6142C26.1317 23.8486 26 24.1665 26 24.498C26 24.8296 26.1317 25.1475 26.3661 25.3819C26.6005 25.6164 26.9185 25.748 27.25 25.748C27.5815 25.748 27.8995 25.6164 28.1339 25.3819C28.3683 25.1475 28.5 24.8296 28.5 24.498C28.5 24.1665 28.3683 23.8486 28.1339 23.6142C27.8995 23.3797 27.5815 23.248 27.25 23.248Z" fill="#FF3D00"/>
<path d="M27.235 14.0674C27.5311 13.9885 27.8413 13.9787 28.1418 14.0388C28.4423 14.0988 28.7249 14.227 28.968 14.4137C29.211 14.6003 29.4079 14.8402 29.5435 15.115C29.6791 15.3898 29.7498 15.692 29.75 15.9984H19.75L27.235 14.0674Z" fill="#FF3D00"/>
</svg>
