<svg width="61" height="42" viewBox="0 0 61 42" fill="none" xmlns="http://www.w3.org/2000/svg">
<path d="M30.5 12.6C28.2939 12.6 26.1781 13.485 24.6182 15.0603C23.0582 16.6356 22.1818 18.7722 22.1818 21C22.1818 23.2278 23.0582 25.3644 24.6182 26.9397C26.1781 28.515 28.2939 29.4 30.5 29.4C32.7061 29.4 34.8219 28.515 36.3818 26.9397C37.9418 25.3644 38.8182 23.2278 38.8182 21C38.8182 18.7722 37.9418 16.6356 36.3818 15.0603C34.8219 13.485 32.7061 12.6 30.5 12.6ZM30.5 35C26.8231 35 23.2969 33.525 20.6969 30.8995C18.097 28.274 16.6364 24.713 16.6364 21C16.6364 17.287 18.097 13.726 20.6969 11.1005C23.2969 8.475 26.8231 7 30.5 7C34.1769 7 37.7031 8.475 40.3031 11.1005C42.903 13.726 44.3636 17.287 44.3636 21C44.3636 24.713 42.903 28.274 40.3031 30.8995C37.7031 33.525 34.1769 35 30.5 35ZM30.5 0C16.6364 0 4.79682 8.708 0 21C4.79682 33.292 16.6364 42 30.5 42C44.3636 42 56.2032 33.292 61 21C56.2032 8.708 44.3636 0 30.5 0Z" fill="#737478"/>
</svg>
