<svg width="80" height="80" viewBox="0 0 80 80" fill="none" xmlns="http://www.w3.org/2000/svg">
<path d="M25 48.3334C19.7333 48.3334 15.3233 51.8667 13.8766 56.6667H6.66663V63.3334H13.8766C15.3233 68.1334 19.7333 71.6667 25 71.6667C30.2666 71.6667 34.6766 68.1334 36.1233 63.3334H73.3333V56.6667H36.1233C34.6766 51.8667 30.2666 48.3334 25 48.3334ZM25 65C22.2433 65 20 62.7567 20 60C20 57.2434 22.2433 55 25 55C27.7566 55 30 57.2434 30 60C30 62.7567 27.7566 65 25 65ZM55 28.3334C49.7333 28.3334 45.3233 31.8667 43.8766 36.6667H6.66663V43.3334H43.8766C45.3233 48.1334 49.7333 51.6667 55 51.6667C60.2666 51.6667 64.6766 48.1334 66.1233 43.3334H73.3333V36.6667H66.1233C64.6766 31.8667 60.2666 28.3334 55 28.3334ZM55 45C52.2433 45 50 42.7567 50 40C50 37.2434 52.2433 35 55 35C57.7566 35 60 37.2434 60 40C60 42.7567 57.7566 45 55 45Z" fill="#236C13"/>
<path d="M42.79 16.6667C41.3433 11.8667 36.9333 8.33337 31.6666 8.33337C26.4 8.33337 21.99 11.8667 20.5433 16.6667H6.66663V23.3334H20.5433C21.99 28.1334 26.4 31.6667 31.6666 31.6667C36.9333 31.6667 41.3433 28.1334 42.79 23.3334H73.75V16.6667H42.79ZM31.6666 25C28.91 25 26.6666 22.7567 26.6666 20C26.6666 17.2434 28.91 15 31.6666 15C34.4233 15 36.6666 17.2434 36.6666 20C36.6666 22.7567 34.4233 25 31.6666 25Z" fill="#236C13"/>
</svg>
