<svg width="62" height="66" viewBox="0 0 62 66" fill="none" xmlns="http://www.w3.org/2000/svg">
<path d="M0.9375 4.59811V61.3989C0.937881 61.5221 0.974636 61.6425 1.04316 61.7449C1.11168 61.8474 1.20891 61.9273 1.32267 61.9747C1.43643 62.022 1.56165 62.0348 1.68262 62.0113C1.8036 61.9878 1.91494 61.9291 2.0027 61.8426L31.5781 32.9999L2.0027 4.1544C1.91494 4.06788 1.8036 4.00919 1.68262 3.9857C1.56165 3.9622 1.43643 3.97495 1.32267 4.02234C1.20891 4.06972 1.11168 4.14964 1.04316 4.25207C0.974636 4.3545 0.937881 4.47487 0.9375 4.59811ZM43.9789 21.1484L6.89508 0.717443L6.87195 0.704435C6.23312 0.35756 5.62609 1.22186 6.1493 1.72483L35.2189 29.5211L43.9789 21.1484ZM6.15219 64.2751C5.62609 64.778 6.23312 65.6423 6.87484 65.2955L6.89797 65.2824L43.9789 44.8515L35.2189 36.4759L6.15219 64.2751ZM58.9494 29.3867L48.5938 23.6835L38.8567 32.9999L48.5938 42.3121L58.9494 36.6132C61.7664 35.0566 61.7664 30.9433 58.9494 29.3867Z" fill="white"/>
</svg>
