<svg width="160" height="160" viewBox="0 0 160 160" fill="none" xmlns="http://www.w3.org/2000/svg">
<path d="M158.444 63.9969H152V63.6667H80V95.5H125.212C118.616 114.031 100.892 127.333 80 127.333C53.492 127.333 32 105.953 32 79.5833C32 53.2134 53.492 31.8333 80 31.8333C92.236 31.8333 103.368 36.4253 111.844 43.926L134.472 21.4159C120.184 8.16923 101.072 0 80 0C35.82 0 0 35.6334 0 79.5833C0 123.533 35.82 159.167 80 159.167C124.18 159.167 160 123.533 160 79.5833C160 74.2473 159.448 69.0385 158.444 63.9969Z" fill="#FFC107"/>
<path d="M9.22412 42.5413L35.5081 61.7169C42.6201 44.2006 59.8441 31.8333 80.0001 31.8333C92.2361 31.8333 103.368 36.4253 111.844 43.926L134.472 21.4159C120.184 8.16923 101.072 0 80.0001 0C49.2721 0 22.6241 17.2576 9.22412 42.5413Z" fill="#FF3D00"/>
<path d="M80 159.167C100.664 159.167 119.44 151.3 133.636 138.507L108.876 117.664C100.574 123.945 90.4298 127.342 80 127.333C59.192 127.333 41.524 114.134 34.868 95.7148L8.78003 115.71C22.02 141.483 48.908 159.167 80 159.167Z" fill="#4CAF50"/>
<path d="M158.444 63.9973H152V63.667H80V95.5003H125.212C122.057 104.32 116.373 112.027 108.864 117.668L108.876 117.66L133.636 138.503C131.884 140.087 160 119.375 160 79.5837C160 74.2476 159.448 69.0389 158.444 63.9973Z" fill="#1976D2"/>
</svg>
