<svg width="26" height="26" viewBox="0 0 26 26" fill="none" xmlns="http://www.w3.org/2000/svg">
<path d="M13 21.125C13.5208 21.125 13.9638 20.9429 14.3288 20.5788C14.6938 20.2146 14.8758 19.7717 14.875 19.25H11.125C11.125 19.7708 11.3075 20.2137 11.6725 20.5788C12.0375 20.9438 12.48 21.1258 13 21.125ZM13 25.5C11.2708 25.5 9.64584 25.1717 8.125 24.515C6.60417 23.8583 5.28125 22.9679 4.15625 21.8438C3.03125 20.7196 2.14084 19.3967 1.485 17.875C0.829168 16.3533 0.500835 14.7283 0.500002 13C0.499168 11.2717 0.827502 9.64667 1.485 8.125C2.1425 6.60333 3.03292 5.28042 4.15625 4.15625C5.27959 3.03208 6.6025 2.14167 8.125 1.485C9.6475 0.828333 11.2725 0.5 13 0.5C14.7275 0.5 16.3525 0.828333 17.875 1.485C19.3975 2.14167 20.7204 3.03208 21.8438 4.15625C22.9671 5.28042 23.8579 6.60333 24.5163 8.125C25.1746 9.64667 25.5025 11.2717 25.5 13C25.4975 14.7283 25.1692 16.3533 24.515 17.875C23.8608 19.3967 22.9704 20.7196 21.8438 21.8438C20.7171 22.9679 19.3942 23.8587 17.875 24.5162C16.3558 25.1737 14.7308 25.5017 13 25.5ZM8 18H18C18.3542 18 18.6513 17.88 18.8913 17.64C19.1313 17.4 19.2508 17.1033 19.25 16.75C19.2492 16.3967 19.1292 16.1 18.89 15.86C18.6508 15.62 18.3542 15.5 18 15.5V12.25C18 10.9792 17.6717 9.81792 17.015 8.76625C16.3583 7.71458 15.4367 7.0425 14.25 6.75V6.125C14.25 5.77083 14.13 5.47417 13.89 5.235C13.65 4.99583 13.3533 4.87583 13 4.875C12.6467 4.87417 12.35 4.99417 12.11 5.235C11.87 5.47583 11.75 5.7725 11.75 6.125V6.75C10.5625 7.04167 9.64084 7.71375 8.985 8.76625C8.32917 9.81875 8.00084 10.98 8 12.25V15.5C7.64584 15.5 7.34917 15.62 7.11 15.86C6.87084 16.1 6.75084 16.3967 6.75 16.75C6.74917 17.1033 6.86917 17.4004 7.11 17.6413C7.35084 17.8821 7.6475 18.0017 8 18Z" fill="#F5F6FA"/>
</svg>
