<svg width="45" height="45" viewBox="0 0 45 45" fill="none" xmlns="http://www.w3.org/2000/svg">
<circle cx="22.5" cy="22.5" r="22.5" fill="black" fill-opacity="0.2"/>
<path d="M28.578 14.432L26.578 13.382C24.822 12.461 23.944 12 23 12C22.056 12 21.178 12.46 19.422 13.382L19.101 13.551L28.024 18.65L32.04 16.64C31.394 15.908 30.352 15.361 28.578 14.43M32.748 17.964L28.75 19.964V23C28.75 23.1989 28.671 23.3897 28.5303 23.5303C28.3897 23.671 28.1989 23.75 28 23.75C27.8011 23.75 27.6103 23.671 27.4697 23.5303C27.329 23.3897 27.25 23.1989 27.25 23V20.714L23.75 22.464V31.904C24.468 31.725 25.285 31.297 26.578 30.618L28.578 29.568C30.729 28.439 31.805 27.875 32.403 26.86C33 25.846 33 24.583 33 22.06V21.943C33 20.05 33 18.866 32.748 17.964ZM22.25 31.904V22.464L13.252 17.964C13 18.866 13 20.05 13 21.941V22.058C13 24.583 13 25.846 13.597 26.86C14.195 27.875 15.271 28.44 17.422 29.569L19.422 30.618C20.715 31.297 21.532 31.725 22.25 31.904ZM13.96 16.641L23 21.161L26.411 19.456L17.525 14.378L17.422 14.432C15.649 15.362 14.606 15.909 13.96 16.642" fill="black"/>
</svg>
