<svg width="103" height="106" viewBox="0 0 103 106" fill="none" xmlns="http://www.w3.org/2000/svg">
<path d="M43.4892 97.3776C43.4892 99.5807 44.3332 101.694 45.8354 103.251C47.3376 104.809 49.375 105.684 51.4995 105.684C53.6239 105.684 55.6613 104.809 57.1636 103.251C58.6658 101.694 59.5097 99.5807 59.5097 97.3776V61.381H94.2207C96.3451 61.381 98.3825 60.5058 99.8847 58.948C101.387 57.3901 102.231 55.2772 102.231 53.0741C102.231 50.871 101.387 48.7581 99.8847 47.2002C98.3825 45.6424 96.3451 44.7672 94.2207 44.7672H59.5097V8.77064C59.5097 6.56752 58.6658 4.45463 57.1636 2.89678C55.6613 1.33893 53.6239 0.463745 51.4995 0.463745C49.375 0.463745 47.3376 1.33893 45.8354 2.89678C44.3332 4.45463 43.4892 6.56752 43.4892 8.77064V44.7672H8.77827C6.65382 44.7672 4.61639 45.6424 3.11418 47.2002C1.61198 48.7581 0.768044 50.871 0.768044 53.0741C0.768044 55.2772 1.61198 57.3901 3.11418 58.948C4.61639 60.5058 6.65382 61.381 8.77827 61.381H43.4892V97.3776Z" fill="white"/>
</svg>
