<svg width="26" height="26" viewBox="0 0 26 26" fill="none" xmlns="http://www.w3.org/2000/svg">
<path fill-rule="evenodd" clip-rule="evenodd" d="M13 3C11.251 2.99968 9.53242 3.45811 8.01591 4.32953C6.4994 5.20096 5.23797 6.4549 4.35753 7.96619C3.4771 9.47748 3.00844 11.1933 2.99835 12.9423C2.98825 14.6913 3.43708 16.4124 4.30001 17.9337C4.88328 17.1757 5.63305 16.562 6.49137 16.14C7.34969 15.718 8.29356 15.499 9.25002 15.5H16.75C17.7065 15.499 18.6503 15.718 19.5087 16.14C20.367 16.562 21.1168 17.1757 21.7 17.9337C22.563 16.4124 23.0118 14.6913 23.0017 12.9423C22.9916 11.1933 22.5229 9.47748 21.6425 7.96619C20.7621 6.4549 19.5006 5.20096 17.9841 4.32953C16.4676 3.45811 14.7491 2.99968 13 3ZM22.9288 20.595C24.6001 18.4162 25.504 15.746 25.5 13C25.5 6.09625 19.9038 0.5 13 0.5C6.09627 0.5 0.500014 6.09625 0.500014 13C0.495887 15.746 1.3999 18.4163 3.07126 20.595L3.06501 20.6175L3.50876 21.1337C4.68112 22.5044 6.13675 23.6045 7.7753 24.3583C9.41386 25.1121 11.1964 25.5016 13 25.5C15.5342 25.5047 18.0093 24.7349 20.0938 23.2937C20.9824 22.6798 21.7882 21.9538 22.4913 21.1337L22.935 20.6175L22.9288 20.595ZM13 5.5C12.0055 5.5 11.0516 5.89509 10.3484 6.59835C9.6451 7.30161 9.25002 8.25544 9.25002 9.25C9.25002 10.2446 9.6451 11.1984 10.3484 11.9016C11.0516 12.6049 12.0055 13 13 13C13.9946 13 14.9484 12.6049 15.6517 11.9016C16.3549 11.1984 16.75 10.2446 16.75 9.25C16.75 8.25544 16.3549 7.30161 15.6517 6.59835C14.9484 5.89509 13.9946 5.5 13 5.5Z" fill="#F5F6FA"/>
</svg>
