<svg width="45" height="45" viewBox="0 0 45 45" fill="none" xmlns="http://www.w3.org/2000/svg">
<circle cx="22.5" cy="22.5" r="22.5" fill="#236C13" fill-opacity="0.2"/>
<path d="M18.4732 13.6372C18.125 13.1149 17.4732 12.8783 16.8705 13.0613C16.2679 13.2444 15.8571 13.7979 15.8571 14.4273V22.9978H14.4286C13.6384 22.9978 13 23.6361 13 24.4262C13 25.2163 13.6384 25.8546 14.4286 25.8546H15.8571V31.5683C15.8571 32.3584 16.4955 32.9967 17.2857 32.9967C18.0759 32.9967 18.7143 32.3584 18.7143 31.5683V25.8546H23.1875L27.5268 32.3628C27.875 32.8851 28.5268 33.1217 29.1295 32.9387C29.7321 32.7556 30.1429 32.2021 30.1429 31.5727V25.8591H31.5714C32.3616 25.8591 33 25.2207 33 24.4306C33 23.6406 32.3616 23.0022 31.5714 23.0022H30.1429V14.4317C30.1429 13.6416 29.5045 13.0033 28.7143 13.0033C27.9241 13.0033 27.2857 13.6416 27.2857 14.4317V23.0022H24.7188L18.4732 13.6372ZM26.6205 25.8546H27.2857V26.85L26.6205 25.8546ZM21.2812 22.9978H18.7143V19.1455L21.2812 22.9978Z" fill="#236C13"/>
</svg>
