<svg width="1838" height="300" viewBox="0 0 1838 300" fill="none" xmlns="http://www.w3.org/2000/svg">
<mask id="mask0_551_3" style="mask-type:luminance" maskUnits="userSpaceOnUse" x="0" y="0" width="1838" height="300">
<path d="M0 0H1838V299.421H0V0Z" fill="white"/>
</mask>
<g mask="url(#mask0_551_3)">
<path d="M1820.05 269.372V253.184L1829.07 233.546H1825.57L1823.18 231.48L1825.57 227.519L1818.95 228.206C1816.92 226.833 1814.72 225.454 1812.33 224.245L1814.72 219.939L1806.99 221.664C1803.31 219.939 1799.63 218.219 1795.95 217.011L1797.05 212.534L1790.42 215.116C1783.61 212.88 1776.62 211.155 1769.81 209.952V204.783L1763.74 208.744C1753.99 207.024 1744.79 205.816 1737.06 205.299V201.514H1734.85L1732.64 204.958C1724.36 204.267 1718.47 204.096 1716.08 204.096H1715.16L1698.59 204.783L1696.39 201.339H1694.18V205.129C1686.45 205.816 1677.25 206.854 1667.49 208.573L1661.79 204.958V210.122C1654.8 211.331 1647.81 213.226 1640.99 215.291L1634.37 212.709L1635.66 217.186C1631.83 218.493 1628.09 219.985 1624.43 221.664L1616.7 219.939L1619.09 224.421L1612.47 228.382L1605.84 227.69L1608.24 231.65L1605.84 233.721H1602.53L1611.73 253.354L1606.4 289.176L1603.82 254.041L1596.09 236.99H1585.97V181.876H1593.33V159.486H1585.97V136.062C1585.97 132.618 1580.08 132.448 1578.97 130.207V128.141C1579.53 128.141 1580.08 128.141 1580.45 127.795C1581.74 127.279 1582.29 126.246 1581.55 125.384C1581.92 126.075 1581.55 126.762 1580.63 127.108C1579.71 127.625 1578.24 127.454 1577.51 126.762C1576.95 126.075 1577.14 125.213 1578.24 124.697C1579.16 124.351 1580.26 124.526 1581 124.867C1580.08 124.351 1578.42 124.18 1577.14 124.697C1575.85 125.213 1575.29 126.416 1576.4 127.279C1576.77 127.795 1577.32 127.971 1578.06 128.141V130.207C1576.77 132.272 1571.43 132.794 1571.43 136.062V159.832H1563.15V181.876H1571.43V236.99H1543.83V190.835H1551.37V168.786H1544.01V145.192C1544.01 141.748 1537.94 141.402 1537.02 139.336V137.271C1537.39 137.271 1537.94 137.271 1538.3 136.925C1539.6 136.408 1540.15 135.2 1539.41 134.513C1539.78 135.03 1539.41 135.892 1538.67 136.238C1537.57 136.754 1536.28 136.579 1535.55 135.892C1534.81 135.2 1535.18 134.343 1536.1 133.826C1537.02 133.48 1538.3 133.48 1539.04 133.997C1537.94 133.31 1536.47 133.134 1535.18 133.826C1533.89 134.343 1533.34 135.546 1534.25 136.408C1534.81 136.925 1535.36 137.095 1536.1 137.095V139.507C1534.81 141.577 1529.29 142.094 1529.29 145.362V168.786H1521.19V191.176H1529.29V231.996H1504.26C1502.61 210.122 1476.66 203.404 1476.66 203.404C1476.66 203.404 1474.45 202.717 1473.9 201.514C1475.55 200.993 1476.47 200.135 1476.47 198.927C1476.47 197.894 1475.55 196.862 1473.9 196.516V188.765C1474.63 188.424 1475 187.907 1475 187.391C1475 186.875 1474.63 186.353 1473.9 186.012V183.771C1476.66 183.255 1478.68 181.706 1478.68 179.811C1478.68 177.569 1476.1 175.85 1472.79 175.679C1475.37 175.85 1477.39 177.399 1477.39 179.124C1477.39 180.843 1475 182.222 1472.24 182.222C1469.3 182.222 1467.08 180.673 1467.08 178.948C1467.08 177.229 1468.93 175.85 1471.69 175.679C1468.37 175.85 1465.8 177.569 1465.8 179.811C1465.8 181.706 1467.82 183.255 1470.58 183.771V185.837C1469.85 186.183 1469.48 186.699 1469.48 187.561C1469.48 188.078 1470.03 188.594 1470.58 188.94V196.516C1469.11 196.862 1468.01 197.894 1468.01 198.927C1468.01 200.135 1469.11 200.993 1470.58 201.514C1469.85 202.717 1467.82 203.234 1467.82 203.234C1467.82 203.234 1441.69 210.122 1440.22 231.996H1416.29V191.176H1423.84V168.786H1416.48V145.362C1416.48 141.918 1410.41 141.577 1409.49 139.336V137.271L1410.96 137.095C1412.06 136.579 1412.61 135.376 1411.88 134.684C1412.25 135.2 1412.06 135.892 1411.14 136.408C1410.04 136.754 1408.75 136.579 1408.01 135.892C1407.28 135.2 1407.64 134.513 1408.56 133.997C1409.49 133.48 1410.77 133.651 1411.51 133.997C1410.41 133.48 1408.93 133.31 1407.64 133.997C1406.36 134.513 1405.81 135.722 1406.73 136.579L1408.56 137.271V139.336C1407.28 141.402 1401.76 141.918 1401.76 145.362V168.786H1393.66V190.835H1401.76V237.165H1372.31V181.876H1379.68V160.002H1372.31V136.408C1372.31 132.964 1366.42 132.618 1365.32 130.553V128.487C1365.87 128.487 1366.42 128.487 1366.79 128.141C1367.9 127.625 1368.63 126.416 1367.9 125.729C1368.26 126.246 1367.9 126.938 1366.97 127.454C1366.05 127.795 1364.58 127.625 1363.85 126.938C1363.29 126.416 1363.48 125.559 1364.58 125.043C1365.5 124.526 1366.6 124.697 1367.34 125.043C1366.42 124.526 1364.77 124.351 1363.48 125.043C1362.19 125.559 1361.64 126.762 1362.74 127.625C1363.11 127.971 1363.66 128.311 1364.4 128.311V130.553C1363.11 132.448 1357.77 132.964 1357.77 136.408V160.002H1349.49V182.052H1357.77V237.336H1326.49L1321.7 289.005L1318.76 167.237H1320.23V166.55L1316.92 165.517L1316.74 165.341V148.12H1308.64V152.773L1308.45 152.427L1281.58 141.748V136.925L1276.62 133.48H1272.94V141.918L1231.16 157.936V159.661L1234.11 158.282V165.171L1231.16 166.374V167.237L1227.48 289.351L1222.33 128.657V119.874H1219.02V125.043H1214.23V119.874H1211.47V125.043H1205.4V119.874H1202.27V125.043H1200.98V111.606H1134.73V125.213H1132.52V119.874H1129.21V125.043H1123.14V119.874H1119.83V125.043H1113.93V119.874H1110.07V128.657L1104.92 290.554L1100.5 93.8685V46.1597H1061.85V48.912H1055.42V46.1597H1027.81V47.3629H981.8V62.6943H985.116L979.042 290.384L973.888 95.7636H957.694V90.0782H967.449V81.4649H965.055V78.1911C966.346 78.1911 967.449 77.1583 967.449 75.7847C967.449 74.406 966.346 73.3732 964.873 73.3732C963.769 73.3732 962.848 74.06 962.478 75.0927H957.694V71.8189H967.449V69.4073H965.055V68.7206H966.158C968.371 68.7206 969.838 67.5174 969.838 65.6222C969.838 63.8975 968.183 62.3484 966.158 62.3484C964.139 62.3484 962.478 63.7271 962.478 65.6222V65.9631H957.876V63.0351H952.541V3.6147H948.679V0H941.5V3.44429H937.45V63.0351H930.829V65.9631H926.592C925.82 65.1162 924.837 64.7134 923.651 64.7599C921.808 64.7599 920.335 65.7926 920.335 67.1714C920.335 68.0338 921.074 68.891 921.996 69.2369H921.626V71.8189H930.829V75.0927H925.858C925.488 73.1976 923.651 71.6485 921.626 71.6485C919.232 71.6485 917.207 73.3732 917.207 75.6091C917.207 77.8502 919.232 79.5698 921.626 79.5698C922.912 79.5698 924.015 79.0534 924.755 78.1911V81.2945H921.626V89.9078H930.829V95.5881H864.575L859.057 288.835L854.825 155.355H827.221V149.153H810.658V139.336L801.085 131.239L796.119 102.993L793.912 100.927L793.355 90.0782H791.887L791.148 101.098L788.571 103.339L783.418 131.239L774.772 139.507V149.323H757.287V155.525H732.998L728.948 289.005L724.899 204.267H726.002V198.065H726.372V197.378H726.002V193.071H722.322V194.62L720.485 192.555L717.72 195.658H707.231L705.024 192.555L702.63 195.658H682.756V194.45L683.677 193.417H682.756V192.73L683.677 191.522H682.756V186.353H676.869V182.222H677.972L675.765 178.778V177.915H676.317V177.569H675.765V176.883H675.026V177.569H674.662V177.915H675.026V178.778L672.449 182.222H673.552V186.353H667.114V180.327H668.035V179.124H665.828V165.687H667.114V164.655H665.828V159.661H667.114V158.969H666.192V155.009H667.114V150.531H667.483V149.845H667.114L665.089 146.054V145.362V145.022H664.537V145.192H664.167V145.362H664.537V145.879L662.33 149.845H661.96V150.531H662.33V151.218H660.487V150.185H657.546V151.218H656.073V150.185H653.314V151.218H652.023V150.185H649.077V151.218H647.239V150.185H644.845V151.218H643.372V150.185H640.795V151.218H639.327V150.185H636.199V151.218H634.356V150.531H634.726V149.845H634.356L631.967 145.879V145.362V145.022H631.597V145.192H631.227V145.362H631.597V146.054L629.572 149.845H629.203V150.531H629.572V155.009H630.494V158.799H629.572V159.661H630.858V164.655H629.572V165.687H630.858V178.948H628.651V180.156H629.572V186.353H623.315V182.052H624.237L621.66 178.607V177.915H622.212V177.399H621.66V176.883H620.921V177.399H620.557V177.915H620.921V178.778L618.714 182.222H619.817V186.353H614.112V191.522H613.191L614.112 192.555V193.247H613.191L614.112 194.28V195.483H594.238L591.661 192.555L589.454 195.483H579.148L576.389 192.555L574.546 194.45V193.071H570.866V197.378H570.496V198.065H570.866V203.926H571.969V205.816H572.339L571.969 208.744V211.847H586.144C588.163 211.671 612.639 204.958 617.792 202.888L561.111 287.286L604.175 211.331C604.175 211.331 591.292 216.84 586.326 216.84H565.712C564.609 216.154 563.875 215.637 562.771 215.291L563.687 210.985H560.559L558.722 211.847L558.534 213.226C549.055 209.394 539.239 206.58 529.092 204.783C514.372 202.031 497.069 200.476 478.85 200.476C465.365 200.321 451.974 201.302 438.677 203.414C425.379 205.526 412.397 208.738 399.717 213.05L399.535 211.847L397.698 210.985H394.57L395.303 215.116L391.623 216.84C382.972 217.011 375.799 217.186 371.749 217.011C366.778 217.011 353.894 211.501 353.894 211.501L388.495 268.34H346.17L172.627 182.222C173.366 176.366 174.839 170.681 177.046 164.484H169.316C169.316 164.484 166.922 165.517 166.922 166.204L166.006 172.752L160.665 176.196L156.803 174.125L155.699 166.033C155.699 165.517 153.304 164.309 153.304 164.309H145.574C147.969 170.856 149.255 176.883 150.176 182.909L18.4119 268.164H0.0108948V277.981H122.572C119.267 285.174 116.078 292.408 113.004 299.684H128.095L135.825 277.981H186.801L194.526 299.684H209.616L200.049 277.981H389.047L340.465 299.684H1838.46V269.197H1820.05V269.372ZM168.213 222.18C169.686 228.036 171.893 234.754 174.652 243.021L164.163 224.762L166.006 219.598L168.213 222.18ZM162.508 198.065L161.217 197.208L163.611 194.966L164.345 195.483V197.894H162.508V198.065ZM163.793 203.234L163.429 203.404L163.059 203.063H163.793V203.234ZM163.429 194.28L161.768 193.247H164.163V193.588L163.429 194.28ZM164.345 194.28V194.796L164.163 194.62V194.45L164.345 194.28ZM163.059 194.62L160.852 196.691L158.458 194.966L160.665 193.247L163.059 194.62ZM158.458 194.28V193.247H159.749L158.458 194.28ZM158.276 188.424V187.391L160.113 188.424H158.276ZM158.458 195.829L160.301 197.208L159.379 198.065H158.458V195.829ZM160.852 197.548L161.586 198.065H160.113L160.665 197.548H160.852ZM164.533 203.063C164.897 203.58 164.897 204.096 164.897 204.612L163.981 203.926L164.715 203.063H164.533ZM164.533 186.353V186.183L164.897 185.837L164.715 186.353H164.533ZM164.533 186.875V188.424H161.217L163.793 186.529L164.533 186.875ZM160.665 188.078L158.088 186.699L160.665 184.804L163.242 186.183L160.665 188.078ZM159.197 203.063L158.458 203.75L158.088 203.404V203.063H159.197ZM160.113 203.063H161.956L163.059 203.926L161.217 206.332L159.01 204.267L160.113 203.063ZM161.217 207.194L161.586 207.886H160.665L161.217 207.194ZM161.586 212.534H164.897L163.793 215.291L161.956 212.88L161.586 212.534ZM163.242 215.637L161.404 219.082L159.379 215.637L161.217 213.05L163.242 215.637ZM164.163 207.886H162.508L161.586 206.678L163.611 204.442L164.897 205.475L165.084 206.508L164.163 207.886ZM165.266 207.54V207.886H164.897L165.266 207.54ZM164.715 177.915L165.454 177.399V178.261L164.715 177.915ZM165.266 178.778H163.429L164.163 178.261L165.266 178.778ZM164.897 183.425V185.15L163.793 185.666L161.217 184.288L162.508 183.425H164.897ZM160.665 184.117L159.749 183.601H161.217L160.665 184.117ZM160.113 184.463L157.906 185.837L157.724 183.425H158.458L160.113 184.463ZM158.458 204.612L160.665 206.678L159.749 207.886H157.906L157.536 207.37L157.724 205.475L158.458 204.612ZM160.665 212.534L158.828 215.116L157.536 212.534H160.665ZM160.665 219.939L158.458 223.905L156.985 219.082L158.828 216.495L160.665 219.939ZM161.217 220.631L163.429 224.421L160.852 231.31L159.01 224.937L161.217 220.631ZM161.586 219.939L163.793 216.324L165.636 218.736L163.793 223.559L161.586 219.939ZM167.109 217.186L168.025 220.285L166.74 218.565L167.109 217.186ZM166.74 215.978L166.006 218.044L164.163 215.637L165.818 212.709H166.188L166.74 215.978ZM166.188 173.268L165.818 176.712L164.163 177.745L161.404 176.366L166.188 173.268ZM160.852 176.712L163.611 178.086L162.508 178.778H158.276L157.724 178.607L160.665 176.712H160.852ZM160.301 176.366L157.354 178.261L156.985 174.817L160.301 176.537V176.366ZM156.62 212.534L158.458 215.637L156.803 218.044L156.069 215.637L156.62 212.534ZM155.699 217.186L156.069 218.906L154.778 220.972L155.699 217.186ZM154.226 222.867L156.433 219.768L157.906 224.937L148.339 241.813L154.226 222.867ZM19.5154 267.994L150.364 183.425L150.728 186.875L31.4774 267.994H19.5154ZM32.3988 267.994L150.915 187.732V191.176L44.1787 268.164H32.3988V267.994ZM45.2822 267.994L150.915 192.039V195.829L57.0566 268.164H45.2822V267.994ZM58.1602 267.994L150.915 196.691C150.915 198.065 150.915 199.619 150.546 200.993L69.9401 268.164H58.1602V267.994ZM71.0436 267.994L150.546 201.685L149.994 206.854L82.8235 267.994H70.8615H71.0436ZM83.927 267.994L149.624 207.711L148.339 214.083L95.707 268.164H83.927V267.994ZM96.4408 267.994L147.969 215.291C147.417 218.39 146.496 221.493 145.392 224.591L108.403 267.994H96.4408ZM127.173 267.994H121.838L136.189 248.015L126.991 267.994H127.173ZM120.917 267.994H109.137L144.658 226.311C142.634 232.342 140.239 238.369 137.293 244.916L120.917 267.994ZM139.318 267.994L147.235 245.257L158.276 225.624L160.113 232.167L145.944 267.994H139.318ZM146.678 267.994L160.665 233.546L171.154 267.994H146.678ZM172.075 267.994L161.035 232.167L163.793 225.278L175.755 246.466L183.116 267.994H172.075ZM195.629 267.994C191.215 258.177 186.983 249.218 183.673 240.951L205.202 267.994H195.629ZM206.124 267.994L182.752 238.715C180.357 233.205 178.52 227.865 176.859 222.867L222.682 267.994H206.124ZM223.421 267.994L176.307 221.493L174.1 213.226L239.615 267.994H223.421ZM240.719 267.994L173.918 212.188L172.814 206.332L257.1 267.823H240.719V267.994ZM258.204 267.994L172.627 205.475L172.075 200.652L274.58 267.994H258.016H258.204ZM275.683 267.994L172.075 199.96L171.711 195.658L292.065 267.994H275.501H275.683ZM293.168 267.994L171.893 194.796V191.176L309.732 268.164H293.168V268.34V267.994ZM310.835 267.994L171.893 190.319L172.075 186.529L327.399 267.994H310.835ZM328.503 267.994L172.075 186.012L172.627 182.568L345.061 267.994H328.503ZM548.045 211.155L539.763 213.226H539.03L533.142 207.194C538.66 208.403 543.449 209.606 547.863 211.155H548.045ZM548.415 212.017L544.183 213.742L541.976 213.567L548.415 211.847V212.017ZM532.955 212.188L527.437 211.501L527.619 210.298L531.299 207.54L532.955 212.188ZM528.91 206.332L518.234 210.814H518.052L512.529 203.75L529.092 206.332H528.91ZM516.397 210.639H515.288L513.82 207.194L516.397 210.639ZM513.632 210.468L504.617 209.782L510.504 203.75L513.632 210.468ZM502.961 209.782L499.463 209.606L507.375 205.129L502.961 209.782ZM508.667 203.234L497.626 209.436H497.438L490.26 202.031C496.705 202.201 502.774 202.547 508.667 203.234ZM495.783 209.436H493.576L490.999 204.442L495.783 209.436ZM492.103 209.436L484.743 209.09L488.605 202.888L492.103 209.26V209.436ZM482.9 209.09H478.85L487.132 202.888L483.087 209.09H482.9ZM478.668 201.685H486.58L477.013 209.09H475.909L468.731 201.855H478.668V201.685ZM474.254 209.09H473.884L472.963 207.886L474.254 209.09ZM472.411 209.09L464.681 209.436L467.809 202.888L472.411 209.26V209.09ZM463.208 209.436L456.951 209.606L466.706 202.371L463.026 209.26L463.208 209.436ZM465.233 202.031L455.113 209.782H454.931L447.201 203.404C452.906 202.717 458.976 202.371 465.233 202.031ZM453.088 209.782H452.719L450.881 208.057L453.088 209.782ZM451.246 209.782L443.333 210.468L445.176 204.267L451.246 209.952V209.782ZM441.678 210.468L435.052 210.985L443.521 204.783L441.678 210.468ZM425.115 208.573V207.711L430.638 211.501L423.829 212.363L424.933 208.573H425.115ZM404.689 215.462L400.457 216.324L400.087 215.116L404.319 212.88L405.98 212.188L404.689 215.462ZM406.162 215.116C406.162 214.599 406.532 214.259 406.714 213.742L407.265 212.363L410.212 214.259L407.083 214.945L406.162 215.116ZM407.635 216.495L412.419 215.637L413.153 215.978L413.704 216.495H407.635ZM408.187 211.501C413.026 209.916 417.931 208.537 422.908 207.37L415.178 213.396L413.704 213.742L408.187 211.501ZM421.065 216.324H415.547L413.892 215.291L421.804 214.083C421.804 214.945 421.434 215.637 421.065 216.324ZM417.385 213.226L423.641 208.403L422.538 212.534L417.385 213.226ZM422.726 216.324L423.459 213.913L430.82 213.05L431.189 216.154H422.726V216.324ZM433.584 210.298H430.638L425.854 206.854L428.982 206.162C433.584 205.299 438.18 204.442 443.151 203.926L433.948 210.639L433.396 210.298H433.584ZM435.421 216.154L435.239 215.116L436.525 216.154H435.421ZM439.841 216.154H438.368L434.688 213.396V212.709L441.309 212.188L439.841 215.978V216.154ZM441.496 216.154L442.782 212.017L452.719 211.331L457.32 215.808L441.496 215.978V216.154ZM459.163 215.808L454.374 211.331L462.292 210.985L460.079 215.808H459.163ZM466.888 215.637H461.37L463.759 210.985H466.888V215.637ZM470.756 215.637L470.204 211.501L469.834 210.814H473.514L476.83 215.462H470.756V215.637ZM478.116 215.462L474.988 210.814H481.978L478.85 215.462H478.116ZM487.871 211.671L487.319 215.637H480.511L483.451 210.814H488.235L487.871 211.671ZM491.182 215.637V210.814L492.837 210.985L495.413 215.637H491.182ZM496.705 215.637L494.31 210.985L501.67 211.155L497.069 215.637H496.705ZM498.73 215.637L503.144 211.331L514.554 212.017L516.397 215.978L498.73 215.808V215.637ZM517.864 215.978L516.027 212.188L522.654 212.709L517.864 216.154V215.978ZM522.466 215.978H519.707L523.018 213.742L522.466 216.154V215.978ZM524.673 210.298L523.757 211.155H523.387L520.629 210.985L530.748 206.678H530.93L525.964 210.122H524.673V210.298ZM526.885 216.154L527.25 213.226L533.507 213.913L534.246 216.324H526.885V216.154ZM533.324 208.919L537.005 212.88L534.428 212.534L533.324 209.09V208.919ZM535.531 216.324L534.798 214.083L541.606 215.116L539.03 216.324H535.349H535.531ZM541.237 216.324L543.449 215.291C545.606 215.632 547.753 216.035 549.888 216.495H541.054L541.237 216.324ZM546.02 214.259L550.622 212.017L554.49 215.808L546.02 214.083V214.259ZM557.618 216.495H556.879L553.386 213.05L557.982 214.775L557.618 216.495Z" fill="#236C13"/>
</g>
</svg>
