<svg width="45" height="45" viewBox="0 0 45 45" fill="none" xmlns="http://www.w3.org/2000/svg">
<circle cx="22.5" cy="22.5" r="22.5" fill="#F8912D" fill-opacity="0.2"/>
<path d="M30 16C30.7956 16 31.5587 16.3161 32.1213 16.8787C32.6839 17.4413 33 18.2044 33 19V27C33 27.7956 32.6839 28.5587 32.1213 29.1213C31.5587 29.6839 30.7956 30 30 30H16C15.2044 30 14.4413 29.6839 13.8787 29.1213C13.3161 28.5587 13 27.7956 13 27V19C13 18.2044 13.3161 17.4413 13.8787 16.8787C14.4413 16.3161 15.2044 16 16 16H30ZM23 20C22.2304 20.0001 21.4902 20.2959 20.9326 20.8264C20.3749 21.3568 20.0425 22.0813 20.004 22.85L20 23C20 23.5933 20.1759 24.1734 20.5056 24.6667C20.8352 25.1601 21.3038 25.5446 21.8519 25.7716C22.4001 25.9987 23.0033 26.0581 23.5853 25.9424C24.1672 25.8266 24.7018 25.5409 25.1213 25.1213C25.5409 24.7018 25.8266 24.1672 25.9424 23.5853C26.0581 23.0033 25.9987 22.4001 25.7716 21.8519C25.5446 21.3038 25.1601 20.8352 24.6667 20.5056C24.1734 20.1759 23.5933 20 23 20ZM29.01 22H29C28.7348 22 28.4804 22.1054 28.2929 22.2929C28.1054 22.4804 28 22.7348 28 23C28 23.2652 28.1054 23.5196 28.2929 23.7071C28.4804 23.8946 28.7348 24 29 24H29.01C29.2752 24 29.5296 23.8946 29.7171 23.7071C29.9046 23.5196 30.01 23.2652 30.01 23C30.01 22.7348 29.9046 22.4804 29.7171 22.2929C29.5296 22.1054 29.2752 22 29.01 22ZM17.01 22H17C16.8687 22.0007 16.7388 22.0272 16.6177 22.078C16.4966 22.1289 16.3868 22.2031 16.2944 22.2964C16.202 22.3898 16.1289 22.5004 16.0792 22.6219C16.0296 22.7435 16.0043 22.8737 16.005 23.005C16.0057 23.1363 16.0322 23.2662 16.083 23.3873C16.1339 23.5084 16.2081 23.6182 16.3014 23.7106C16.3948 23.803 16.5054 23.8761 16.6269 23.9258C16.7485 23.9754 16.8787 24.0007 17.01 24C17.2752 24 17.5296 23.8946 17.7171 23.7071C17.9046 23.5196 18.01 23.2652 18.01 23C18.01 22.7348 17.9046 22.4804 17.7171 22.2929C17.5296 22.1054 17.2752 22 17.01 22Z" fill="#F8912D"/>
</svg>
