<svg width="439" height="304" viewBox="0 0 439 304" fill="none" xmlns="http://www.w3.org/2000/svg">
<g clip-path="url(#clip0_818_409)">
<path d="M418.567 59.1355H20.433C15.0157 59.1294 9.82206 56.9858 5.99145 53.1749C2.16085 49.364 0.00611863 44.1971 0 38.8077V20.3278C0.00611863 14.9384 2.16085 9.7715 5.99145 5.96061C9.82206 2.14972 15.0157 0.00608894 20.433 0H418.567C423.984 0.00608714 429.178 2.14971 433.009 5.9606C436.839 9.77149 438.994 14.9384 439 20.3278V38.8077C438.994 44.1971 436.839 49.364 433.009 53.1749C429.178 56.9858 423.984 59.1294 418.567 59.1355ZM20.433 1.23198C15.344 1.23772 10.4652 3.25145 6.86671 6.83137C3.26827 10.4113 1.24413 15.2651 1.23836 20.3278V38.8077C1.24413 43.8704 3.26827 48.7242 6.86671 52.3041C10.4652 55.884 15.344 57.8978 20.433 57.9035H418.567C423.656 57.8978 428.535 55.884 432.133 52.3041C435.732 48.7242 437.756 43.8704 437.762 38.8077V20.3278C437.756 15.2651 435.732 10.4113 432.133 6.83137C428.535 3.25145 423.656 1.23772 418.567 1.23198H20.433Z" fill="#236C13"/>
<path d="M315.164 17.8643H50.7732C44.2759 17.8643 39.0088 23.1043 39.0088 29.5681V29.5682C39.0088 36.0321 44.2759 41.2721 50.7732 41.2721H315.164C321.661 41.2721 326.928 36.0321 326.928 29.5681C326.928 23.1043 321.661 17.8643 315.164 17.8643Z" fill="#E6E6E6"/>
<path d="M349.838 120.515H85.4471C78.9497 120.515 73.6826 125.755 73.6826 132.219V132.219C73.6826 138.682 78.9497 143.922 85.4471 143.922H349.838C356.335 143.922 361.602 138.682 361.602 132.219C361.602 125.755 356.335 120.515 349.838 120.515Z" fill="#236C13"/>
<path d="M349.838 194.939H85.4471C78.9497 194.939 73.6826 200.179 73.6826 206.643V206.643C73.6826 213.107 78.9497 218.347 85.4471 218.347H349.838C356.335 218.347 361.602 213.107 361.602 206.643C361.602 200.179 356.335 194.939 349.838 194.939Z" fill="#E6E6E6"/>
<path d="M349.838 269.365H85.4471C78.9497 269.365 73.6826 274.605 73.6826 281.069V281.069C73.6826 287.533 78.9497 292.773 85.4471 292.773H349.838C356.335 292.773 361.602 287.533 361.602 281.069C361.602 274.605 356.335 269.365 349.838 269.365Z" fill="#E6E6E6"/>
<path d="M400.297 42.2121C400.015 42.6126 399.585 42.8853 399.101 42.9702C398.617 43.0551 398.119 42.9453 397.717 42.6648L387.608 35.667C387.205 35.3866 386.931 34.9585 386.846 34.477C386.76 33.9956 386.871 33.5001 387.152 33.0996C387.434 32.6991 387.865 32.4264 388.349 32.3415C388.833 32.2566 389.331 32.3664 389.733 32.6469L399.842 39.6447C400.245 39.9251 400.519 40.3532 400.604 40.8347C400.69 41.3161 400.579 41.8116 400.297 42.2121Z" fill="#236C13"/>
<path d="M388.82 34.2613C387.328 36.3815 385.237 38.0138 382.812 38.9519C380.388 39.89 377.738 40.0918 375.198 39.5316C372.658 38.9714 370.342 37.6745 368.543 35.8049C366.744 33.9352 365.542 31.5768 365.091 29.0279C364.639 26.479 364.957 23.854 366.005 21.485C367.052 19.1159 368.783 17.1092 370.977 15.7185C373.171 14.3278 375.731 13.6156 378.332 13.6721C380.933 13.7285 383.458 14.551 385.589 16.0355C388.444 18.0287 390.387 21.067 390.993 24.4838C391.599 27.9006 390.817 31.4169 388.82 34.2613ZM369.963 21.1259C368.844 22.716 368.224 24.6006 368.182 26.5413C368.139 28.4821 368.676 30.3917 369.724 32.0289C370.773 33.6661 372.286 34.9572 374.072 35.7389C375.857 36.5207 377.836 36.7581 379.758 36.421C381.68 36.0839 383.457 35.1874 384.867 33.8451C386.276 32.5027 387.254 30.7747 387.676 28.8795C388.099 26.9844 387.947 25.0072 387.239 23.198C386.532 21.3888 385.302 19.8289 383.703 18.7155C381.559 17.2254 378.908 16.6423 376.332 17.0942C373.756 17.5461 371.466 18.996 369.963 21.1259Z" fill="#236C13"/>
<path d="M407.112 155.088H31.8877C31.7235 155.088 31.566 155.024 31.4499 154.908C31.3338 154.793 31.2686 154.636 31.2686 154.472C31.2686 154.309 31.3338 154.152 31.4499 154.037C31.566 153.921 31.7235 153.856 31.8877 153.856H407.112C407.276 153.856 407.434 153.921 407.55 154.037C407.666 154.152 407.731 154.309 407.731 154.472C407.731 154.636 407.666 154.793 407.55 154.908C407.434 155.024 407.276 155.088 407.112 155.088Z" fill="#236C13"/>
<path d="M407.112 229.544H31.8877C31.7235 229.544 31.566 229.48 31.4499 229.364C31.3338 229.249 31.2686 229.092 31.2686 228.928C31.2686 228.765 31.3338 228.608 31.4499 228.493C31.566 228.377 31.7235 228.312 31.8877 228.312H407.112C407.276 228.312 407.434 228.377 407.55 228.493C407.666 228.608 407.731 228.765 407.731 228.928C407.731 229.092 407.666 229.249 407.55 229.364C407.434 229.48 407.276 229.544 407.112 229.544Z" fill="#236C13"/>
<path d="M407.112 304H31.8877C31.7235 304 31.566 303.935 31.4499 303.819C31.3338 303.704 31.2686 303.547 31.2686 303.384C31.2686 303.22 31.3338 303.064 31.4499 302.948C31.566 302.833 31.7235 302.768 31.8877 302.768H407.112C407.276 302.768 407.434 302.833 407.55 302.948C407.666 303.064 407.731 303.22 407.731 303.384C407.731 303.547 407.666 303.704 407.55 303.819C407.434 303.935 407.276 304 407.112 304Z" fill="#236C13"/>
</g>
<defs>
<clipPath id="clip0_818_409">
<rect width="439" height="304" fill="white"/>
</clipPath>
</defs>
</svg>
