<svg width="505" height="392" viewBox="0 0 505 392" fill="none" xmlns="http://www.w3.org/2000/svg">
<g clip-path="url(#clip0_814_28)">
<path d="M65.8826 172.498C47.0845 164.602 32.0153 149.819 23.7599 131.176C19.141 120.616 16.886 109.163 15.6021 97.7086C14.3424 86.4704 14.0852 74.6157 18.9218 64.3935C21.5699 58.7967 25.6228 53.9813 30.6855 50.4166C35.7482 46.8519 41.648 44.6596 47.8101 44.0532C53.9721 43.4468 60.1861 44.447 65.8465 46.9564C71.507 49.4658 76.4209 53.3988 80.1092 58.372C83.2839 62.6526 85.5159 67.7889 85.5729 73.1179C85.6923 84.2959 76.7042 93.2666 72.7612 103.727C68.6864 114.536 70.155 126.513 70.8477 138.044C71.5405 149.575 71.1014 162.076 64.1046 171.268" fill="#F8912D" fill-opacity="0.48"/>
<path d="M403.025 313.841C422.877 309.191 440.2 297.129 451.45 280.124C457.765 270.481 461.899 259.565 465.075 248.485C468.191 237.614 470.422 225.969 467.358 215.083C465.681 209.123 462.488 203.699 458.091 199.34C453.693 194.981 448.242 191.835 442.267 190.21C436.293 188.584 429.999 188.534 423.999 190.064C418 191.594 412.499 194.652 408.032 198.941C404.188 202.632 401.131 207.324 400.186 212.569C398.204 223.57 405.57 233.915 407.713 244.886C409.928 256.223 406.482 267.787 403.876 279.042C401.269 290.296 399.617 302.695 404.983 312.925" fill="#F8912D" fill-opacity="0.48"/>
<path d="M251.627 295.891C223.33 295.981 195.8 286.702 173.331 269.502C151.331 252.694 135.259 229.314 127.445 202.754L128.564 202.429C144.366 256.772 194.971 294.726 251.627 294.726C268.567 294.758 285.343 291.411 300.974 284.88L301.422 285.955C285.65 292.545 268.721 295.923 251.627 295.891Z" fill="#D9D9D9"/>
<path d="M373.949 128.285C357.14 74.5473 307.983 38.4423 251.627 38.4423C234.927 38.412 218.384 41.6647 202.939 48.0154L202.496 46.9381C223.157 38.4766 245.655 35.5004 267.805 38.2983C289.955 41.0963 311.006 49.5733 328.914 62.9066C350.709 79.2341 366.845 101.974 375.061 127.937L373.949 128.285Z" fill="#D9D9D9"/>
<path d="M408.892 336.664C355.899 336.664 312.785 293.551 312.785 240.557C312.785 187.564 355.899 144.451 408.892 144.451C461.886 144.451 505 187.564 505 240.557C505 293.551 461.886 336.664 408.892 336.664ZM408.892 145.616C356.541 145.616 313.95 188.207 313.95 240.557C313.95 292.909 356.541 335.499 408.892 335.499C461.244 335.499 503.835 292.909 503.835 240.557C503.835 188.207 461.244 145.616 408.892 145.616Z" fill="#236C13"/>
<path d="M96.1073 192.213C43.1135 192.213 0 149.1 0 96.1063C0 43.113 43.1135 0 96.1073 0C149.101 0 192.215 43.113 192.215 96.1063C192.215 149.1 149.101 192.213 96.1073 192.213ZM96.1073 1.16492C43.7559 1.16492 1.16494 43.7555 1.16494 96.1063C1.16494 148.457 43.7559 191.048 96.1073 191.048C148.459 191.048 191.05 148.457 191.05 96.1063C191.05 43.7555 148.459 1.16492 96.1073 1.16492Z" fill="#236C13"/>
<path d="M88.6343 96.6463L80.1475 113.129L88.5273 117.933C88.5273 117.933 94.276 99.4182 94.4452 98.7156C95.3121 98.3614 96.0509 97.7523 96.5641 96.969C97.0772 96.1857 97.3404 95.2651 97.319 94.3289C97.2975 93.3927 96.9923 92.4851 96.4438 91.7262C95.8953 90.9672 95.1293 90.3927 94.2471 90.0785C93.365 89.7644 92.4083 89.7255 91.5035 89.9669C90.5987 90.2083 89.7886 90.7187 89.1802 91.4306C88.5718 92.1424 88.1939 93.0222 88.0964 93.9536C87.999 94.8849 88.1865 95.8239 88.6343 96.6463Z" fill="#A0616A"/>
<path d="M45.0801 98.8887C48.8658 112.915 62.4732 121.823 73.7728 132.503C75.1642 132.991 76.6422 133.184 78.1122 133.068C79.5823 132.953 81.0121 132.532 82.3102 131.832C83.6083 131.133 84.7461 130.17 85.651 129.006C86.5559 127.842 87.2078 126.501 87.5652 125.071L91.3736 110.167L81.6939 109.908L77.688 114.261L64.7264 105.025L45.0801 98.8887Z" fill="#236C13"/>
<path d="M394.605 255.49C396.249 255.598 397.785 256.342 398.888 257.565C399.991 258.789 400.573 260.394 400.51 262.04C400.492 262.374 400.447 262.706 400.374 263.033L419.037 274.791L408.719 279.354L392.578 267.489C391.246 267.082 390.087 266.246 389.28 265.111C388.474 263.976 388.066 262.605 388.12 261.214C388.158 260.423 388.352 259.646 388.691 258.93C389.029 258.213 389.505 257.57 390.092 257.038C390.679 256.506 391.365 256.094 392.111 255.827C392.857 255.559 393.648 255.441 394.44 255.48C394.495 255.482 394.55 255.486 394.605 255.49Z" fill="#FFB6B6"/>
<path d="M412.602 269.446L407.977 278.99L426.265 290.759C427.566 291.603 429.062 292.101 430.61 292.205C432.158 292.308 433.707 292.015 435.109 291.351C436.814 290.535 438.207 289.187 439.079 287.51C439.951 285.833 440.255 283.918 439.943 282.054L434.009 248.175C433.611 245.804 432.319 243.676 430.4 242.229C428.48 240.781 426.079 240.124 423.69 240.393C421.34 240.65 419.188 241.83 417.708 243.673C416.228 245.517 415.541 247.872 415.798 250.222C415.808 250.314 415.82 250.406 415.833 250.498C415.877 250.823 415.94 251.146 416.019 251.465L422.498 275.559L412.602 269.446Z" fill="#F8912D"/>
<path d="M395.98 273.316L389.093 255.546C388.858 254.937 388.874 254.261 389.137 253.664C389.401 253.068 389.89 252.6 390.498 252.364L394.371 250.863C394.979 250.628 395.655 250.644 396.252 250.907C396.849 251.17 397.316 251.659 397.553 252.267L404.44 270.038C404.675 270.646 404.659 271.322 404.395 271.919C404.132 272.516 403.643 272.983 403.035 273.219L399.162 274.721C398.554 274.955 397.877 274.94 397.281 274.676C396.684 274.413 396.216 273.924 395.98 273.316Z" fill="#236C13"/>
<path d="M391.302 253.094C390.975 253.221 390.711 253.473 390.569 253.795C390.427 254.116 390.419 254.481 390.545 254.809L397.432 272.579C397.56 272.907 397.812 273.17 398.133 273.312C398.455 273.454 398.819 273.463 399.147 273.336L403.02 271.835C403.347 271.708 403.611 271.456 403.753 271.134C403.895 270.813 403.903 270.448 403.777 270.12L396.89 252.35C396.762 252.022 396.51 251.759 396.189 251.617C395.867 251.475 395.503 251.466 395.175 251.593L391.302 253.094Z" fill="#F8912D"/>
<path d="M411.302 310.396H437.457V284.241H411.302V310.396Z" fill="#FFB8B8"/>
<path d="M349.277 361.268L339.288 357.907L333.726 385.097L340.494 387.373L349.277 361.268Z" fill="#FFB6B6"/>
<path d="M366.991 356.096L356.735 358.521L366.38 384.543L373.33 382.899L366.991 356.096Z" fill="#FFB6B6"/>
<path d="M436.519 317.229C441.761 352.177 371.951 331.515 371.951 331.515L350.063 361.709L337.249 359.379C337.249 359.379 343.015 341.253 353.312 316.953C357.885 306.162 409.812 308.799 409.812 308.799L410.89 300.337L440.596 299.755L436.519 317.229Z" fill="black"/>
<path d="M369.748 324.018L350.735 324.455C353.783 350.67 356.47 361.127 356.47 361.127L367.537 357.632L369.748 324.018Z" fill="black"/>
<path d="M421.577 241.741L426.842 234.974L434.351 234.648L435.101 241.013L438.822 242.729C442.537 256.844 443.111 271.602 440.503 285.963C440.004 286.432 439.64 287.026 439.447 287.684C439.255 288.341 439.241 289.038 439.408 289.702L439.649 290.664L439.627 290.699C438.835 291.948 438.566 293.459 438.879 294.905L440.656 298.062C441.293 299.198 441.676 300.459 441.777 301.757C441.878 303.055 441.695 304.36 441.241 305.581C440.787 306.801 440.072 307.908 439.147 308.824C438.222 309.741 437.108 310.445 435.883 310.887C424.96 314.846 414.721 316.321 407.146 305.211L404.764 266.494L421.577 241.741Z" fill="#F8912D"/>
<path d="M427.092 236.77C434.76 236.77 440.977 230.554 440.977 222.886C440.977 215.217 434.76 209.001 427.092 209.001C419.423 209.001 413.207 215.217 413.207 222.886C413.207 230.554 419.423 236.77 427.092 236.77Z" fill="#FFB8B8"/>
<path d="M434.062 206.149C439.941 206.262 444.604 211.715 444.477 218.329C448.827 222.868 447.389 228.423 443.754 234.363C437.104 235.135 435.551 235.456 429.72 237.835L428.951 234.244L427.21 238.92C425.728 239.603 424.257 240.353 422.797 241.17C421.748 236.358 422.009 231.681 424.828 227.608C427.333 223.989 421.237 219.692 416.878 220.3L416.942 216.976L415.847 220.28C414.148 221.528 412.268 221.076 410.341 220.174C407.215 203.93 431.414 199.487 434.062 206.149Z" fill="black"/>
<path d="M343.57 391.972L339.12 391.391L338.874 387.086L336.291 391.021L324.488 389.48C323.922 389.406 323.394 389.153 322.982 388.758C322.571 388.363 322.296 387.847 322.198 387.285C322.1 386.723 322.184 386.144 322.439 385.634C322.693 385.123 323.104 384.707 323.612 384.446L333.888 379.168L334.443 374.92L344.28 376.807L343.57 391.972Z" fill="black"/>
<path d="M375.883 389.522L371.432 390.095L370.096 385.994L368.602 390.459L356.796 391.978C356.23 392.051 355.656 391.941 355.157 391.664C354.658 391.388 354.26 390.959 354.022 390.44C353.784 389.921 353.718 389.34 353.834 388.782C353.95 388.223 354.241 387.716 354.665 387.334L363.255 379.61L362.709 375.361L372.702 374.677L375.883 389.522Z" fill="black"/>
<path d="M396.279 258.738C397.922 258.846 399.459 259.59 400.562 260.813C401.665 262.037 402.247 263.642 402.184 265.288C402.166 265.622 402.121 265.954 402.048 266.281L420.711 278.039L410.393 282.602L394.252 270.737C392.92 270.33 391.761 269.494 390.954 268.359C390.148 267.224 389.74 265.853 389.794 264.462C389.832 263.671 390.026 262.894 390.365 262.178C390.703 261.461 391.179 260.819 391.766 260.286C392.353 259.754 393.039 259.342 393.785 259.075C394.531 258.807 395.322 258.689 396.113 258.728C396.169 258.73 396.224 258.734 396.279 258.738Z" fill="#FFB6B6"/>
<path d="M414.276 272.696L409.65 282.239L427.939 294.008C429.24 294.852 430.736 295.35 432.284 295.454C433.832 295.557 435.38 295.264 436.783 294.6C438.488 293.784 439.881 292.436 440.753 290.759C441.625 289.082 441.928 287.167 441.617 285.303L435.683 251.424C435.285 249.053 433.993 246.925 432.073 245.478C430.154 244.03 427.753 243.373 425.364 243.642C424.2 243.769 423.073 244.124 422.047 244.687C421.02 245.25 420.115 246.009 419.382 246.922C418.649 247.835 418.103 248.883 417.776 250.007C417.448 251.131 417.345 252.308 417.472 253.472C417.482 253.563 417.494 253.655 417.506 253.747C417.551 254.072 417.614 254.395 417.693 254.714L424.172 278.808L414.276 272.696Z" fill="#F8912D"/>
<path d="M64.3135 270.855L70.1801 273.501L83.1796 252.133L74.5212 248.227L64.3135 270.855Z" fill="#A0616A"/>
<path d="M61.3457 276.881L79.3857 285.019L79.4886 284.791C80.3287 282.929 80.3946 280.809 79.672 278.898C78.9493 276.987 77.4972 275.442 75.635 274.602L73.4673 270.615L66.1911 270.341L64.6164 269.631L61.3457 276.881Z" fill="black"/>
<path d="M136.973 241.794L143.168 240.055L139.408 215.327L130.263 217.895L136.973 241.794Z" fill="#A0616A"/>
<path d="M138.569 248.32L157.623 242.97L157.555 242.729C157.003 240.763 155.692 239.096 153.911 238.095C152.13 237.095 150.024 236.843 148.057 237.395L143.835 235.731L138.082 240.195L136.419 240.662L138.569 248.32Z" fill="black"/>
<path d="M43.1947 169.541C43.3531 174.125 53.1024 186.492 58.2297 188.265C59.1013 188.567 59.6107 188.733 59.6107 188.733L61.3952 188.194L83.0065 181.655C86.7907 183.881 98.0792 185.013 107.342 185.579C114.714 186.028 118.823 189.882 118.823 189.882C120.998 206.423 127.268 218.482 134.499 233.302L143.177 231.793L134.979 176.588C134.802 175.396 134.278 174.282 133.474 173.385C132.669 172.488 131.618 171.847 130.452 171.542L71.4802 156.117C71.4802 156.117 68.228 155.528 61.3688 158.837C50.0765 164.285 43.0815 166.205 43.1947 169.541Z" fill="black"/>
<path d="M54.4636 168.654C52.4858 172.793 55.4167 188.265 59.1444 192.207L60.1338 192.88L60.4684 193.055C62.7046 200.618 86.7012 222.741 86.7012 222.741C78.5956 233.067 71.3721 245.664 68.149 259.778L77.5215 263.203L103.904 223.818C104.595 222.786 104.958 221.57 104.944 220.328C104.93 219.086 104.541 217.878 103.828 216.862L93.0649 201.531L75.5271 167.56C62.9952 167.173 55.9044 165.644 54.4636 168.654Z" fill="black"/>
<path d="M43.5472 171.343C43.5182 171.343 42.8312 169.545 42.8173 169.541C42.5837 169.476 39.4216 169.164 40.1328 163.929L41.0426 158.167L40.1544 153.08L38.6604 151.586L41.0615 149.185L39.59 138.295L39.025 116.492C37.6071 109.003 37.9774 102.153 44.8463 98.8549L52.7211 91.5508L61.6818 91.4424L71.848 97.4691L76.7735 107.288L78.6839 133.9L80.1104 137.228L79.9882 137.339C79.9788 137.347 79.0284 138.207 78.6015 138.679C78.3947 138.973 78.7827 141.166 79.2618 143.028L79.8761 147.625L78.3279 148.731L80.3409 151.109L85.8285 160.385L85.4997 160.303C85.1293 160.211 81.6783 165.391 43.8008 171.151C43.626 171.177 43.6199 171.343 43.5472 171.343Z" fill="#236C13"/>
<path d="M86.9194 113.751L83.7838 112.115C83.2918 111.857 82.922 111.415 82.7556 110.885C82.5892 110.356 82.6396 109.782 82.8959 109.289L90.4033 94.9019C90.6607 94.41 91.1027 94.0402 91.6324 93.8738C92.1621 93.7073 92.7362 93.7578 93.2287 94.0141L96.3644 95.6503C96.8563 95.9077 97.2261 96.3497 97.3926 96.8794C97.559 97.4091 97.5085 97.9831 97.2522 98.4757L89.7448 112.863C89.4874 113.355 89.0454 113.725 88.5157 113.891C87.986 114.057 87.412 114.007 86.9194 113.751Z" fill="#236C13"/>
<path d="M92.4788 94.5563C92.2134 94.4182 91.904 94.391 91.6186 94.4807C91.3332 94.5704 91.095 94.7696 90.9562 95.0347L83.4489 109.422C83.3107 109.687 83.2836 109.997 83.3733 110.282C83.4629 110.568 83.6622 110.806 83.9273 110.944L87.063 112.581C87.3284 112.719 87.6377 112.746 87.9232 112.656C88.2086 112.567 88.4468 112.367 88.5855 112.102L96.0929 97.715C96.231 97.4496 96.2582 97.1402 96.1685 96.8548C96.0788 96.5694 95.8796 96.3312 95.6145 96.1925L92.4788 94.5563Z" fill="#F8912D"/>
<path d="M59.221 89.479C66.2968 89.479 72.0329 83.7429 72.0329 76.6672C72.0329 69.5915 66.2968 63.8555 59.221 63.8555C52.1452 63.8555 46.4092 69.5915 46.4092 76.6672C46.4092 83.7429 52.1452 89.479 59.221 89.479Z" fill="#A0616A"/>
<path d="M52.9192 84.9182C52.3575 84.4715 51.6568 84.2362 50.9393 84.2533C50.7168 84.2899 50.5045 84.3734 50.3166 84.4982C50.1287 84.6229 49.9694 84.7862 49.8493 84.9771C49.7826 85.0611 49.696 85.127 49.5973 85.169C49.4986 85.211 49.391 85.2277 49.2843 85.2175C47.9172 85.2673 45.0034 82.7313 44.8041 77.838C44.7095 75.5124 43.318 71.5772 45.5331 69.4459C45.6816 68.5858 47.4113 59.6959 55.2082 59.4509C63.1906 59.1973 68.5044 60.8007 69.7809 63.843C70.6674 66.2583 71.3413 68.7464 71.795 71.2789L72.0627 72.7848L71.4373 71.3891C71.4255 71.3629 70.2847 68.8641 68.1693 68.0305C68.135 68.4372 68.0316 68.8351 67.8635 69.207C67.1732 70.7029 65.4332 71.679 63.4305 71.6942C62.0467 71.6515 60.6821 71.3581 59.403 70.8281C59.5479 71.0371 59.6292 71.2835 59.6371 71.5377C59.6451 71.7918 59.5794 72.0429 59.448 72.2605C59.3165 72.4782 59.1249 72.6532 58.8963 72.7644C58.6676 72.8757 58.4117 72.9184 58.1593 72.8875L57.789 72.8415C57.6724 72.8269 57.5543 72.8537 57.4552 72.9171C57.3562 72.9805 57.2825 73.0765 57.2469 73.1886C57.2113 73.3006 57.2161 73.4216 57.2603 73.5305C57.3046 73.6395 57.3856 73.7295 57.4893 73.7849L57.8154 73.9592L57.4197 74.1506C55.8269 74.8611 54.5145 76.0795 53.6876 77.6151C52.8608 79.1507 52.5662 80.917 52.8498 82.6379L53.3111 85.2328L52.9192 84.9182Z" fill="black"/>
<path d="M255.767 282.89C255.417 282.906 255.07 282.814 254.774 282.626C254.478 282.439 254.246 282.165 254.111 281.841C253.975 281.517 253.943 281.16 254.017 280.817C254.092 280.475 254.27 280.163 254.528 279.925L254.645 279.459C254.63 279.422 254.614 279.385 254.598 279.347C254.245 278.514 253.654 277.803 252.898 277.304C252.143 276.805 251.256 276.541 250.351 276.545C249.446 276.548 248.562 276.819 247.81 277.323C247.058 277.827 246.472 278.542 246.125 279.379C244.739 282.717 242.974 286.06 242.54 289.589C242.349 291.149 242.429 292.731 242.778 294.263C239.523 287.163 237.833 279.445 237.822 271.634C237.822 269.674 237.93 267.716 238.148 265.768C238.329 264.171 238.578 262.585 238.898 261.011C240.643 252.47 244.389 244.464 249.828 237.652C252.461 236.215 254.59 234.006 255.929 231.323C256.414 230.358 256.756 229.328 256.946 228.265C256.649 228.304 256.347 228.328 256.05 228.348C255.958 228.353 255.86 228.358 255.768 228.362L255.733 228.364C255.407 228.379 255.083 228.299 254.801 228.134C254.519 227.969 254.291 227.726 254.144 227.434C253.997 227.142 253.937 226.814 253.972 226.489C254.007 226.164 254.135 225.857 254.341 225.603C254.469 225.445 254.598 225.287 254.726 225.13C254.921 224.886 255.12 224.648 255.315 224.404C255.338 224.381 255.359 224.357 255.378 224.331C255.602 224.054 255.826 223.781 256.05 223.504C255.642 222.869 255.092 222.338 254.444 221.951C252.199 220.636 249.103 221.546 247.482 223.577C245.855 225.607 245.549 228.455 246.113 230.991C246.669 233.15 247.588 235.198 248.83 237.048C248.708 237.204 248.582 237.355 248.46 237.51C246.235 240.371 244.296 243.444 242.67 246.683C243.066 243.054 242.594 239.383 241.294 235.972C239.976 232.793 237.506 230.116 235.331 227.368C232.718 224.067 227.361 225.507 226.9 229.692C226.896 229.732 226.892 229.773 226.887 229.813C227.21 229.996 227.527 230.189 227.836 230.394C228.225 230.653 228.526 231.024 228.7 231.458C228.874 231.892 228.914 232.368 228.812 232.825C228.711 233.281 228.475 233.696 228.134 234.016C227.792 234.336 227.363 234.545 226.901 234.616L226.853 234.623C226.968 235.788 227.172 236.942 227.462 238.075C228.302 241.24 229.787 244.196 231.824 246.76C233.861 249.324 236.405 251.439 239.297 252.973C239.487 253.07 239.672 253.168 239.862 253.26C238.229 257.889 237.204 262.71 236.814 267.603C236.594 270.49 236.607 273.389 236.853 276.274L236.839 276.172C236.216 272.964 234.504 270.07 231.995 267.978C228.267 264.916 223 263.788 218.978 261.326C218.551 261.052 218.054 260.905 217.546 260.904C217.038 260.903 216.54 261.047 216.111 261.319C215.683 261.592 215.341 261.981 215.126 262.441C214.911 262.901 214.832 263.414 214.899 263.917C214.904 263.953 214.91 263.989 214.916 264.025C215.515 264.269 216.099 264.55 216.663 264.867C216.986 265.049 217.303 265.243 217.612 265.447C218.001 265.707 218.302 266.078 218.476 266.512C218.65 266.946 218.69 267.422 218.588 267.878C218.487 268.335 218.251 268.75 217.91 269.07C217.568 269.389 217.139 269.598 216.677 269.67L216.629 269.677C216.595 269.682 216.566 269.687 216.532 269.692C217.556 272.138 218.994 274.389 220.782 276.347C222.991 278.717 225.661 280.611 228.628 281.913C231.595 283.215 234.797 283.897 238.036 283.917H238.041C238.921 287.739 240.195 291.459 241.844 295.018H255.427C255.476 294.867 255.52 294.711 255.564 294.56C254.306 294.639 253.044 294.564 251.805 294.336C252.813 293.1 253.82 291.853 254.828 290.617C254.851 290.594 254.872 290.569 254.892 290.544C255.403 289.911 255.919 289.283 256.43 288.65L256.43 288.649C256.458 286.709 256.234 284.773 255.767 282.89Z" fill="#D9D9D9"/>
<path d="M321.062 72.265C321.324 72.498 321.508 72.806 321.589 73.1471C321.671 73.4883 321.645 73.8463 321.516 74.1724C321.387 74.4986 321.161 74.7772 320.869 74.9706C320.576 75.164 320.231 75.2627 319.88 75.2535L319.471 75.5054C319.456 75.5429 319.441 75.5804 319.426 75.618C319.097 76.4614 319.025 77.3833 319.218 78.2678C319.411 79.1523 319.861 79.96 320.512 80.5895C321.163 81.219 321.985 81.6422 322.875 81.8059C323.766 81.9696 324.685 81.8665 325.517 81.5097C328.839 80.0866 332.436 78.9237 335.211 76.6995C336.436 75.7159 337.482 74.5271 338.302 73.186C335.677 80.5428 331.501 87.2493 326.057 92.8506C324.689 94.2548 323.244 95.5814 321.729 96.8242C320.485 97.8421 319.199 98.8031 317.872 99.7073C310.661 104.606 302.39 107.725 293.74 108.807C290.852 107.998 287.786 108.094 284.954 109.082C283.933 109.434 282.969 109.932 282.091 110.561C282.331 110.74 282.564 110.934 282.791 111.127C282.86 111.188 282.933 111.253 283.003 111.314L283.029 111.337C283.273 111.554 283.449 111.837 283.536 112.152C283.622 112.467 283.616 112.801 283.518 113.112C283.42 113.424 283.233 113.7 282.982 113.909C282.73 114.117 282.423 114.248 282.099 114.286C281.897 114.309 281.695 114.333 281.493 114.356C281.183 114.394 280.874 114.426 280.565 114.464C280.532 114.465 280.5 114.468 280.468 114.472C280.114 114.515 279.763 114.554 279.409 114.596C279.259 115.336 279.282 116.1 279.476 116.83C280.166 119.338 283.019 120.847 285.597 120.524C288.178 120.206 290.386 118.38 291.752 116.169C292.861 114.236 293.632 112.128 294.034 109.936C294.229 109.909 294.425 109.89 294.621 109.863C298.212 109.367 301.745 108.52 305.17 107.335C302.354 109.658 300.129 112.616 298.68 115.967C297.405 119.163 297.305 122.804 296.944 126.29C296.511 130.478 301.354 133.185 304.604 130.51C304.635 130.484 304.667 130.458 304.698 130.432C304.594 130.076 304.502 129.717 304.424 129.354C304.326 128.897 304.37 128.421 304.548 127.989C304.726 127.556 305.03 127.188 305.421 126.932C305.812 126.675 306.272 126.543 306.739 126.552C307.206 126.562 307.66 126.712 308.041 126.983L308.08 127.011C308.81 126.097 309.47 125.129 310.053 124.114C311.66 121.262 312.66 118.108 312.991 114.85C313.322 111.593 312.976 108.302 311.976 105.185C311.908 104.983 311.843 104.784 311.772 104.585C316.172 102.41 320.271 99.6726 323.965 96.4409C326.138 94.5278 328.152 92.4421 329.989 90.2042L329.928 90.2876C328.136 93.0196 327.341 96.2865 327.678 99.5365C328.211 104.332 331.195 108.815 332.357 113.385C332.472 113.88 332.726 114.332 333.088 114.687C333.451 115.042 333.908 115.287 334.405 115.391C334.903 115.495 335.419 115.455 335.894 115.275C336.369 115.095 336.783 114.784 337.087 114.376C337.108 114.347 337.129 114.318 337.15 114.288C336.891 113.695 336.669 113.086 336.486 112.465C336.382 112.109 336.291 111.75 336.212 111.387C336.115 110.93 336.158 110.454 336.336 110.022C336.514 109.589 336.818 109.221 337.209 108.965C337.6 108.708 338.06 108.576 338.527 108.585C338.995 108.595 339.448 108.745 339.829 109.016L339.868 109.044C339.896 109.064 339.92 109.081 339.948 109.101C340.921 106.635 341.463 104.019 341.549 101.369C341.622 98.1298 341.032 94.9099 339.816 91.9068C338.6 88.9037 336.783 86.1806 334.477 83.9046L334.473 83.9012C336.511 80.5504 338.195 76.9969 339.498 73.298L329.771 63.8174C329.63 63.8915 329.49 63.9725 329.353 64.05C330.309 64.8709 331.161 65.8058 331.889 66.8337C330.304 67.0158 328.712 67.205 327.128 67.3872C327.095 67.388 327.063 67.3908 327.031 67.3953C326.223 67.4917 325.415 67.5813 324.608 67.6777L324.607 67.6781C323.233 69.0484 322.042 70.5904 321.062 72.265Z" fill="#D9D9D9"/>
<path d="M86.8828 110.286L74.6338 124.202L81.5898 130.904C81.5898 130.904 91.6785 114.349 92.014 113.709C92.941 113.577 93.806 113.166 94.4947 112.532C95.1833 111.897 95.663 111.069 95.8704 110.155C96.0778 109.242 96.0031 108.288 95.6562 107.418C95.3092 106.548 94.7064 105.804 93.9274 105.284C93.1485 104.765 92.2301 104.494 91.2938 104.507C90.3574 104.521 89.4473 104.818 88.6837 105.361C87.9202 105.903 87.3392 106.664 87.0176 107.543C86.696 108.423 86.649 109.379 86.8828 110.286Z" fill="#A0616A"/>
<path d="M44.0957 101.843C44.348 116.368 55.3731 128.325 63.7281 141.438C64.9585 142.25 66.345 142.797 67.7989 143.044C69.2527 143.29 70.742 143.23 72.1715 142.868C73.601 142.506 74.9391 141.85 76.1005 140.942C77.2619 140.033 78.221 138.892 78.9163 137.592L86.2432 124.066L76.9186 121.455L71.9722 124.701L61.6533 112.584L44.0957 101.843Z" fill="#236C13"/>
</g>
<defs>
<clipPath id="clip0_814_28">
<rect width="505" height="392" fill="white"/>
</clipPath>
</defs>
</svg>
