<svg width="508" height="365" viewBox="0 0 508 365" fill="none" xmlns="http://www.w3.org/2000/svg">
<g clip-path="url(#clip0_817_256)">
<path d="M13.4512 364.195C13.4512 364.641 13.8094 365 14.2555 365H507.196C507.642 365 508 364.641 508 364.195C508 363.748 507.642 363.39 507.196 363.39H14.2555C13.8094 363.39 13.4512 363.748 13.4512 364.195Z" fill="#3F3D58"/>
<path d="M171.298 64.3838H13.201C7.17182 64.3838 2.26465 59.4713 2.26465 53.4355C2.26465 47.3998 7.17182 42.4873 13.201 42.4873H171.298C177.327 42.4873 182.235 47.3998 182.235 53.4355C182.235 59.4713 177.327 64.3838 171.298 64.3838ZM13.201 43.8406C7.91533 43.8406 3.61649 48.1441 3.61649 53.4355C3.61649 58.727 7.91533 63.0305 13.201 63.0305H171.298C176.584 63.0305 180.883 58.727 180.883 53.4355C180.883 48.1441 176.584 43.8406 171.298 43.8406H13.201Z" fill="#E2E3E4"/>
<path d="M171.298 192.508H13.2009C7.35425 192.508 2.60254 187.751 2.60254 181.898C2.60254 176.045 7.35425 171.288 13.2009 171.288H171.298C177.145 171.288 181.897 176.045 181.897 181.898C181.897 187.751 177.145 192.508 171.298 192.508Z" fill="#236C13"/>
<path d="M119.489 21.2198H10.5984C4.75171 21.2198 0 16.463 0 10.6099C0 4.75687 4.75171 0 10.5984 0H119.489C125.336 0 130.087 4.75687 130.087 10.6099C130.087 16.463 125.336 21.2198 119.489 21.2198Z" fill="#E2E3E4"/>
<path d="M171.298 107.202H13.201C7.17182 107.202 2.26465 102.29 2.26465 96.2539C2.26465 90.2182 7.17182 85.3057 13.201 85.3057H171.298C177.327 85.3057 182.235 90.2182 182.235 96.2539C182.235 102.29 177.327 107.202 171.298 107.202ZM13.201 86.659C7.91533 86.659 3.61649 90.9625 3.61649 96.2539C3.61649 101.545 7.91533 105.849 13.201 105.849H171.298C176.584 105.849 180.883 101.545 180.883 96.2539C180.883 90.9625 176.584 86.659 171.298 86.659H13.201Z" fill="#E2E3E4"/>
<path d="M171.298 150.027H13.201C7.17182 150.027 2.26465 145.115 2.26465 139.079C2.26465 133.043 7.17182 128.131 13.201 128.131H171.298C177.327 128.131 182.235 133.043 182.235 139.079C182.235 145.115 177.327 150.027 171.298 150.027ZM13.201 129.484C7.91533 129.484 3.61649 133.788 3.61649 139.079C3.61649 144.371 7.91533 148.674 13.201 148.674H171.298C176.584 148.674 180.883 144.371 180.883 139.079C180.883 133.788 176.584 129.484 171.298 129.484H13.201Z" fill="#E2E3E4"/>
<path d="M7.76677 34.624H49.2006C50.1874 34.624 50.9918 35.4225 50.9918 36.4172C50.9918 37.4051 50.1874 38.2103 49.2006 38.2103H7.76677C6.77993 38.2103 5.97559 37.4118 5.97559 36.4172C5.97559 35.4292 6.77993 34.624 7.76677 34.624Z" fill="#E2E3E4"/>
<path d="M7.76677 78.458H49.2006C50.1874 78.458 50.9918 79.2565 50.9918 80.2444C50.9918 81.2323 50.1874 82.0375 49.2006 82.0375H7.76677C6.77993 82.0375 5.97559 81.2391 5.97559 80.2511C5.97559 79.2632 6.77993 78.458 7.76677 78.458Z" fill="#E2E3E4"/>
<path d="M7.76677 122.298H49.2006C50.1874 122.298 50.9918 123.096 50.9918 124.091C50.9918 125.079 50.1874 125.877 49.2006 125.877H7.76677C6.77993 125.877 5.97559 125.079 5.97559 124.084C5.97559 123.096 6.77993 122.298 7.76677 122.298Z" fill="#E2E3E4"/>
<path d="M302.19 89.4937L287.076 94.4738V72.6924H300.791L302.19 89.4937Z" fill="#F8912D" fill-opacity="0.48"/>
<path d="M288.948 78.721C297.265 78.721 304.008 71.9713 304.008 63.6452C304.008 55.319 297.265 48.5693 288.948 48.5693C280.631 48.5693 273.889 55.319 273.889 63.6452C273.889 71.9713 280.631 78.721 288.948 78.721Z" fill="#F8912D" fill-opacity="0.48"/>
<path d="M293.085 62.1502C290.564 62.0757 288.908 59.5247 287.928 57.1971C286.948 54.8694 285.94 52.1966 283.602 51.2358C281.689 50.4508 278.316 55.7626 276.809 54.3484C275.234 52.8733 276.768 45.3015 278.438 43.9414C280.107 42.5814 282.392 42.3175 284.541 42.216C289.786 41.9724 295.065 42.3987 300.209 43.4745C303.393 44.1377 306.664 45.1391 308.962 47.4397C311.869 50.3629 312.612 54.7679 312.822 58.8887C313.038 63.1042 312.795 67.516 310.747 71.2038C308.699 74.8915 304.413 77.6117 300.304 76.6711C299.891 74.4382 300.31 72.1443 300.473 69.8708C300.628 67.604 300.466 65.1545 299.08 63.3478C297.701 61.5412 294.741 60.8239 293.132 62.4276" fill="#236C13"/>
<path d="M311.612 67.3743C313.119 66.2714 314.924 65.3443 316.776 65.5744C318.777 65.818 320.473 67.469 320.987 69.4246C321.501 71.3801 320.926 73.5318 319.682 75.1287C318.446 76.7256 316.6 77.7812 314.654 78.309C313.525 78.6135 312.288 78.7421 311.213 78.2819C309.632 77.5985 308.773 75.5753 309.395 73.9649" fill="#236C13"/>
<path d="M253.983 209.22C252.976 214.174 254.821 218.7 258.093 219.33C261.364 219.959 264.832 216.447 265.832 211.494C266.258 209.518 266.19 207.475 265.636 205.526L278.093 127.88L262.513 124.943L256.498 203.773C255.22 205.37 254.362 207.238 253.983 209.227V209.22Z" fill="#F8912D" fill-opacity="0.48"/>
<path d="M286.913 84.4795H276.281C268.765 85.623 266.724 89.6356 265.014 97.0517C262.405 108.365 259.072 123.428 259.735 123.651C260.796 124.003 278.897 132.529 288.123 130.58L286.913 84.4795Z" fill="#E2E3E4"/>
<path d="M297.195 331.803H283.041V351.906H297.195V331.803Z" fill="#F8912D" fill-opacity="0.48"/>
<path d="M269.259 364.072C267.772 364.072 266.447 364.038 265.447 363.944C261.689 363.599 258.099 360.817 256.295 359.194C255.484 358.463 255.227 357.299 255.646 356.297C255.95 355.58 256.552 355.039 257.302 354.829L267.238 351.987L283.325 341.12L283.507 341.445C283.575 341.567 285.157 344.415 285.684 346.337C285.887 347.068 285.832 347.677 285.528 348.151C285.319 348.475 285.021 348.665 284.785 348.773C285.075 349.078 285.988 349.7 288.8 350.147C292.903 350.796 293.768 346.54 293.802 346.364L293.829 346.222L293.95 346.141C295.904 344.882 297.107 344.307 297.519 344.429C297.776 344.503 298.209 344.639 299.378 356.23C299.493 356.595 300.311 359.261 299.756 361.812C299.155 364.586 287.042 363.632 284.616 363.416C284.548 363.423 275.477 364.072 269.266 364.072H269.259Z" fill="#236C13"/>
<path d="M337.497 316.009L325.487 323.507L336.114 340.565L348.124 333.067L337.497 316.009Z" fill="#F8912D" fill-opacity="0.48"/>
<path d="M321.548 361.319C319.885 361.319 318.358 361.116 317.27 360.927C316.202 360.737 315.363 359.885 315.188 358.815C315.066 358.044 315.289 357.266 315.816 356.691L322.744 349.017L330.653 331.276L330.977 331.452C331.099 331.519 333.944 333.096 335.411 334.449C335.972 334.963 336.249 335.511 336.236 336.073C336.229 336.466 336.08 336.777 335.932 337C336.337 337.108 337.439 337.149 340.061 336.039C343.887 334.422 342.373 330.349 342.306 330.179L342.251 330.044L342.312 329.916C343.306 327.811 344.016 326.688 344.435 326.573C344.698 326.498 345.131 326.383 352.248 335.606C352.539 335.85 354.641 337.684 355.52 340.14C356.473 342.813 345.692 348.422 343.522 349.518C343.455 349.572 332.174 357.78 327.537 360.115C325.698 361.042 323.522 361.326 321.541 361.326L321.548 361.319Z" fill="#236C13"/>
<path d="M307.618 163.688H267.988L264.393 200.593L280.128 336.952H300.358L292.267 258.197L325.083 329.299L343.063 316.7L317.439 250.32C317.439 250.32 326.591 192.494 319.399 178.088C312.207 163.688 307.618 163.688 307.618 163.688Z" fill="#236C13"/>
<path d="M327.334 165.935H264.393L283.278 84.4795H310.7L327.334 165.935Z" fill="#E2E3E4"/>
<path d="M332.998 209.22C334.005 214.174 332.16 218.7 328.888 219.33C325.617 219.959 322.149 216.447 321.149 211.494C320.723 209.518 320.791 207.475 321.345 205.526L308.888 127.88L324.468 124.943L330.483 203.773C331.761 205.37 332.619 207.238 332.998 209.227V209.22Z" fill="#F8912D" fill-opacity="0.48"/>
<path d="M300.067 84.4795H310.7C318.216 85.623 320.257 89.6356 321.967 97.0517C324.576 108.365 327.908 123.428 327.246 123.651C326.185 124.003 308.084 132.529 298.857 130.58L300.067 84.4795Z" fill="#E2E3E4"/>
</g>
<defs>
<clipPath id="clip0_817_256">
<rect width="508" height="365" fill="white"/>
</clipPath>
</defs>
</svg>
