<svg width="389" height="354" viewBox="0 0 389 354" fill="none" xmlns="http://www.w3.org/2000/svg">
<g clip-path="url(#clip0_819_94)">
<path d="M334.484 32.5508L9.27344 127.304L17.8873 156.868L343.098 62.1155L334.484 32.5508Z" fill="#236C13"/>
<path d="M48.1276 263.105L0.194151 98.588C-0.161215 97.3683 -0.01748 96.0574 0.593714 94.9436C1.20491 93.8298 2.2335 93.0045 3.45323 92.6491L320.78 0.193136C322 -0.161035 323.31 -0.0168132 324.424 0.594162C325.537 1.20514 326.363 2.23294 326.719 3.45196L369.184 149.202L367.87 149.585L325.405 3.83488C325.15 2.96451 324.56 2.23078 323.765 1.79444C322.97 1.3581 322.034 1.25471 321.163 1.50695L3.83606 93.9629C2.96482 94.2168 2.23012 94.8064 1.79355 95.6019C1.35699 96.3975 1.25432 97.3339 1.50814 98.2051L49.4416 262.722L48.1276 263.105Z" fill="#236C13"/>
<path d="M298.949 149.878C297.987 149.877 297.05 149.565 296.28 148.987C295.51 148.409 294.947 147.598 294.677 146.674L286.637 119.08C286.309 117.948 286.443 116.731 287.01 115.697C287.577 114.663 288.532 113.897 289.663 113.566L317.257 105.526C318.39 105.197 319.606 105.331 320.64 105.899C321.674 106.466 322.441 107.421 322.772 108.553L330.811 136.146C331.14 137.279 331.006 138.495 330.439 139.529C329.871 140.563 328.917 141.33 327.785 141.661L300.191 149.7C299.788 149.818 299.37 149.878 298.949 149.878Z" fill="#236C13"/>
<path d="M47.3864 99.096C47.3037 98.8125 47.2054 98.5338 47.092 98.2611C46.3205 96.3886 44.8842 94.8672 43.059 93.9893C41.2339 93.1114 39.1487 92.939 37.2042 93.5051C35.2597 94.0712 33.593 95.336 32.5243 97.0564C31.4557 98.7768 31.0605 100.831 31.4147 102.825C31.4644 103.116 31.5307 103.404 31.6131 103.688C32.1129 105.393 33.1516 106.891 34.574 107.957C35.9963 109.023 37.7257 109.599 39.5031 109.6C40.2791 109.602 41.0513 109.491 41.7956 109.272C43.8847 108.661 45.6465 107.247 46.6946 105.34C47.7427 103.432 47.9914 101.187 47.3864 99.096ZM41.4123 107.958C39.6701 108.463 37.7984 108.258 36.2077 107.385C34.6171 106.513 33.4372 105.045 32.927 103.304C32.8469 103.021 32.7828 102.733 32.7352 102.442C32.4785 100.799 32.8291 99.1191 33.7213 97.7159C34.6135 96.3126 35.9862 95.2824 37.5829 94.8178C39.1795 94.3533 40.8908 94.4862 42.3965 95.1917C43.9023 95.8972 45.0996 97.127 45.7644 98.6512C45.8884 98.9188 45.9914 99.1956 46.0725 99.4792C46.5775 101.221 46.3704 103.093 45.4966 104.683C44.6229 106.272 43.1539 107.45 41.4123 107.958Z" fill="#236C13"/>
<path d="M27.2454 104.961C26.8075 103.457 26.8496 101.854 27.3658 100.375C27.882 98.896 28.8466 97.6149 30.1252 96.7101C28.9273 96.6517 27.7327 96.8804 26.641 97.3772C25.5494 97.874 24.5922 98.6244 23.8493 99.566C23.1064 100.508 22.5993 101.613 22.3701 102.79C22.141 103.968 22.1965 105.183 22.532 106.334C22.8675 107.486 23.4732 108.54 24.2989 109.41C25.1245 110.28 26.1461 110.94 27.2785 111.336C28.4109 111.731 29.6213 111.85 30.809 111.682C31.9966 111.515 33.1271 111.066 34.1062 110.374C32.5417 110.297 31.0399 109.735 29.8102 108.765C28.5804 107.794 27.6838 106.465 27.2454 104.961Z" fill="#236C13"/>
<path d="M239.971 138.875C239.825 138.351 239.578 137.861 239.243 137.433C238.908 137.005 238.491 136.648 238.018 136.381C237.544 136.114 237.023 135.943 236.483 135.878C235.944 135.812 235.396 135.854 234.873 136.001L189.442 148.708L184.549 150.077H215.274L220.167 148.708L237.104 143.973C238.159 143.676 239.054 142.973 239.592 142.017C240.13 141.061 240.266 139.931 239.971 138.875Z" fill="#F8912D"/>
<path d="M207.829 129.384C207.533 128.327 206.829 127.432 205.873 126.894C204.917 126.357 203.787 126.221 202.731 126.516L134.56 145.581C133.607 145.851 132.782 146.452 132.234 147.277C131.686 148.101 131.45 149.094 131.569 150.077H149.218L154.117 148.709L204.962 134.489C206.018 134.191 206.914 133.486 207.451 132.529C207.989 131.572 208.124 130.441 207.829 129.384Z" fill="#F8912D"/>
<path d="M383.33 148.707H52.8077C51.5378 148.708 50.3202 149.214 49.4222 150.112C48.5241 151.01 48.019 152.227 48.0176 153.497V349.21C48.0189 350.48 48.5241 351.697 49.4221 352.595C50.3201 353.493 51.5377 353.999 52.8077 354H383.33C384.6 353.999 385.817 353.493 386.715 352.595C387.613 351.697 388.118 350.48 388.12 349.21V153.497C388.118 152.227 387.613 151.01 386.715 150.112C385.817 149.214 384.6 148.709 383.33 148.707ZM386.751 349.21C386.751 350.117 386.39 350.987 385.749 351.629C385.107 352.27 384.237 352.631 383.33 352.631H52.8077C51.9004 352.631 51.0303 352.27 50.3887 351.629C49.7471 350.987 49.3865 350.117 49.3862 349.21V153.497C49.3866 152.59 49.7472 151.72 50.3888 151.078C51.0304 150.437 51.9004 150.076 52.8077 150.076H383.33C384.237 150.076 385.107 150.437 385.749 151.078C386.39 151.72 386.751 152.59 386.751 153.497V349.21Z" fill="#236C13"/>
<path d="M84.9685 175.397C83.3444 175.397 81.7568 174.915 80.4064 174.013C79.056 173.111 78.0034 171.828 77.3819 170.328C76.7604 168.827 76.5978 167.176 76.9146 165.583C77.2315 163.99 78.0136 162.527 79.162 161.379C80.3104 160.23 81.7736 159.448 83.3665 159.131C84.9595 158.815 86.6106 158.977 88.111 159.599C89.6115 160.22 90.894 161.273 91.7964 162.623C92.6987 163.974 93.1803 165.561 93.1803 167.185C93.1778 169.362 92.3118 171.45 90.7724 172.989C89.2329 174.529 87.1457 175.395 84.9685 175.397ZM84.9685 160.342C83.6151 160.342 82.2921 160.744 81.1667 161.496C80.0414 162.247 79.1643 163.316 78.6464 164.567C78.1284 165.817 77.9929 167.193 78.257 168.52C78.521 169.848 79.1727 171.067 80.1298 172.024C81.0868 172.981 82.3061 173.633 83.6335 173.897C84.961 174.161 86.3369 174.025 87.5873 173.508C88.8377 172.99 89.9064 172.113 90.6584 170.987C91.4103 169.862 91.8116 168.539 91.8116 167.185C91.8096 165.371 91.088 163.632 89.8051 162.349C88.5222 161.066 86.7828 160.344 84.9685 160.342Z" fill="#236C13"/>
<path d="M72.2044 167.185C72.2047 165.618 72.6935 164.091 73.6028 162.815C74.512 161.54 75.7965 160.58 77.2772 160.069C76.1434 159.678 74.9326 159.563 73.7455 159.735C72.5585 159.906 71.4296 160.359 70.453 161.055C69.4763 161.751 68.6802 162.671 68.1308 163.737C67.5815 164.803 67.2949 165.985 67.2949 167.185C67.2949 168.384 67.5815 169.566 68.1308 170.632C68.6802 171.698 69.4763 172.618 70.453 173.314C71.4296 174.01 72.5585 174.463 73.7455 174.635C74.9326 174.806 76.1434 174.692 77.2772 174.3C75.7965 173.789 74.512 172.829 73.6028 171.554C72.6935 170.278 72.2047 168.751 72.2044 167.185Z" fill="#236C13"/>
<path d="M118.255 264.205C116.623 264.203 115.057 263.554 113.903 262.399C112.748 261.245 112.099 259.679 112.097 258.046V239.57C112.097 237.937 112.746 236.37 113.901 235.215C115.056 234.06 116.622 233.411 118.255 233.411C119.889 233.411 121.455 234.06 122.61 235.215C123.765 236.37 124.414 237.937 124.414 239.57V258.046C124.412 259.679 123.763 261.245 122.608 262.399C121.454 263.554 119.888 264.203 118.255 264.205Z" fill="#236C13"/>
<path d="M134.679 264.205C133.046 264.203 131.481 263.554 130.326 262.399C129.172 261.245 128.522 259.679 128.521 258.046V239.57C128.521 237.937 129.169 236.37 130.324 235.215C131.479 234.06 133.046 233.411 134.679 233.411C136.313 233.411 137.879 234.06 139.034 235.215C140.189 236.37 140.838 237.937 140.838 239.57V258.046C140.836 259.679 140.187 261.245 139.032 262.399C137.878 263.554 136.312 264.203 134.679 264.205Z" fill="#236C13"/>
<path d="M151.102 264.205C149.469 264.203 147.904 263.554 146.749 262.399C145.595 261.245 144.945 259.679 144.943 258.046V239.57C144.943 237.937 145.592 236.37 146.747 235.215C147.902 234.06 149.469 233.411 151.102 233.411C152.736 233.411 154.302 234.06 155.457 235.215C156.612 236.37 157.261 237.937 157.261 239.57V258.046C157.259 259.679 156.61 261.245 155.455 262.399C154.3 263.554 152.735 264.203 151.102 264.205Z" fill="#236C13"/>
<path d="M176.421 264.205C174.789 264.203 173.223 263.554 172.069 262.399C170.914 261.245 170.265 259.679 170.263 258.046V239.57C170.263 237.937 170.912 236.37 172.067 235.215C173.222 234.06 174.788 233.411 176.421 233.411C178.055 233.411 179.621 234.06 180.776 235.215C181.931 236.37 182.58 237.937 182.58 239.57V258.046C182.578 259.679 181.929 261.245 180.774 262.399C179.62 263.554 178.054 264.203 176.421 264.205Z" fill="#236C13"/>
<path d="M192.845 264.205C191.212 264.203 189.647 263.554 188.492 262.399C187.338 261.245 186.688 259.679 186.687 258.046V239.57C186.687 237.937 187.335 236.37 188.49 235.215C189.645 234.06 191.212 233.411 192.845 233.411C194.479 233.411 196.045 234.06 197.2 235.215C198.355 236.37 199.004 237.937 199.004 239.57V258.046C199.002 259.679 198.353 261.245 197.198 262.399C196.044 263.554 194.478 264.203 192.845 264.205Z" fill="#236C13"/>
<path d="M209.269 264.205C207.636 264.203 206.071 263.554 204.916 262.399C203.762 261.245 203.112 259.679 203.11 258.046V239.57C203.11 237.937 203.759 236.37 204.914 235.215C206.069 234.06 207.636 233.411 209.269 233.411C210.903 233.411 212.469 234.06 213.624 235.215C214.779 236.37 215.428 237.937 215.428 239.57V258.046C215.426 259.679 214.777 261.245 213.622 262.399C212.467 263.554 210.902 264.203 209.269 264.205Z" fill="#236C13"/>
<path d="M234.588 264.205C232.956 264.203 231.39 263.554 230.236 262.399C229.081 261.245 228.432 259.679 228.43 258.046V239.57C228.43 237.937 229.079 236.37 230.234 235.215C231.389 234.06 232.955 233.411 234.588 233.411C236.222 233.411 237.788 234.06 238.943 235.215C240.098 236.37 240.747 237.937 240.747 239.57V258.046C240.745 259.679 240.096 261.245 238.941 262.399C237.787 263.554 236.221 264.203 234.588 264.205Z" fill="#236C13"/>
<path d="M251.011 264.205C249.378 264.203 247.813 263.554 246.658 262.399C245.504 261.245 244.854 259.679 244.853 258.046V239.57C244.853 237.937 245.501 236.37 246.656 235.215C247.811 234.06 249.378 233.411 251.011 233.411C252.645 233.411 254.211 234.06 255.366 235.215C256.521 236.37 257.17 237.937 257.17 239.57V258.046C257.168 259.679 256.519 261.245 255.364 262.399C254.21 263.554 252.644 264.203 251.011 264.205Z" fill="#236C13"/>
<path d="M267.435 264.205C265.802 264.203 264.237 263.554 263.082 262.399C261.928 261.245 261.278 259.679 261.276 258.046V239.57C261.276 237.937 261.925 236.37 263.08 235.215C264.235 234.06 265.802 233.411 267.435 233.411C269.069 233.411 270.635 234.06 271.79 235.215C272.945 236.37 273.594 237.937 273.594 239.57V258.046C273.592 259.679 272.943 261.245 271.788 262.399C270.633 263.554 269.068 264.203 267.435 264.205Z" fill="#236C13"/>
<path d="M292.754 264.205C291.122 264.203 289.556 263.554 288.402 262.399C287.247 261.245 286.598 259.679 286.596 258.046V239.57C286.596 237.937 287.245 236.37 288.4 235.215C289.555 234.06 291.121 233.411 292.754 233.411C294.388 233.411 295.954 234.06 297.109 235.215C298.264 236.37 298.913 237.937 298.913 239.57V258.046C298.911 259.679 298.262 261.245 297.107 262.399C295.953 263.554 294.387 264.203 292.754 264.205Z" fill="#236C13"/>
<path d="M309.178 264.205C307.545 264.203 305.98 263.554 304.825 262.399C303.671 261.245 303.021 259.679 303.02 258.046V239.57C303.02 237.937 303.668 236.37 304.823 235.215C305.978 234.06 307.545 233.411 309.178 233.411C310.812 233.411 312.378 234.06 313.533 235.215C314.688 236.37 315.337 237.937 315.337 239.57V258.046C315.335 259.679 314.686 261.245 313.531 262.399C312.377 263.554 310.811 264.203 309.178 264.205Z" fill="#236C13"/>
<path d="M325.601 264.205C323.968 264.203 322.403 263.554 321.248 262.399C320.094 261.245 319.444 259.679 319.442 258.046V239.57C319.442 237.937 320.091 236.37 321.246 235.215C322.401 234.06 323.968 233.411 325.601 233.411C327.235 233.411 328.801 234.06 329.956 235.215C331.111 236.37 331.76 237.937 331.76 239.57V258.046C331.758 259.679 331.109 261.245 329.954 262.399C328.799 263.554 327.234 264.203 325.601 264.205Z" fill="#236C13"/>
<path d="M160.01 332.75H71.4332C70.3357 332.75 69.2831 332.314 68.507 331.538C67.7309 330.762 67.2949 329.709 67.2949 328.612C67.2949 327.514 67.7309 326.462 68.507 325.686C69.2831 324.91 70.3357 324.474 71.4332 324.474H160.01C161.108 324.474 162.161 324.91 162.937 325.686C163.713 326.462 164.149 327.514 164.149 328.612C164.149 329.709 163.713 330.762 162.937 331.538C162.161 332.314 161.108 332.75 160.01 332.75Z" fill="#F8912D"/>
<path d="M131.612 314.958H99.8326C98.7351 314.958 97.6825 314.522 96.9064 313.746C96.1303 312.97 95.6943 311.917 95.6943 310.82C95.6943 309.722 96.1303 308.67 96.9064 307.894C97.6825 307.118 98.7351 306.682 99.8326 306.682H131.612C132.71 306.682 133.762 307.118 134.538 307.894C135.314 308.67 135.75 309.722 135.75 310.82C135.75 311.917 135.314 312.97 134.538 313.746C133.762 314.522 132.71 314.958 131.612 314.958Z" fill="#F8912D"/>
<path d="M386.505 189.615H49.1406V190.984H386.505V189.615Z" fill="#236C13"/>
</g>
<defs>
<clipPath id="clip0_819_94">
<rect width="388.12" height="354" fill="white"/>
</clipPath>
</defs>
</svg>
