<?xml version="1.0" encoding="UTF-8" standalone="no"?>
<svg
   width="63.254135"
   height="16.128777"
   viewBox="0 0 63.254135 16.128777"
   fill="none"
   version="1.1"
   id="svg59"
   xmlns="http://www.w3.org/2000/svg"
   xmlns:svg="http://www.w3.org/2000/svg">
  <defs
     id="defs59" />
  <mask
     id="mask0"
     maskUnits="userSpaceOnUse"
     x="220"
     y="156"
     width="13"
     height="21">
    <path
       fill-rule="evenodd"
       clip-rule="evenodd"
       d="m 220.45,158.6 c 2.573,-1.79 5.428,-2.254 7.699,-2.254 2.449,0 4.217,0.54 4.217,0.54 l -0.853,4.566 c 0,0 -3.123,-1.14 -5.385,0.574 v 14.841 h -5.678 z"
       fill="#ffffff"
       id="path2" />
  </mask>
  <mask
     id="mask1"
     maskUnits="userSpaceOnUse"
     x="220"
     y="156"
     width="13"
     height="21">
    <path
       fill-rule="evenodd"
       clip-rule="evenodd"
       d="m 220.45,158.6 c 2.573,-1.79 5.428,-2.254 7.699,-2.254 2.449,0 4.217,0.54 4.217,0.54 l -0.853,4.566 c 0,0 -3.123,-1.14 -5.385,0.574 v 14.841 h -5.678 z"
       fill="#ffffff"
       id="path4" />
  </mask>
  <mask
     id="mask2"
     maskUnits="userSpaceOnUse"
     x="182"
     y="150"
     width="14"
     height="28">
    <path
       fill-rule="evenodd"
       clip-rule="evenodd"
       d="m 182.565,151.676 5.675,-1.005 v 5.941 h 5.616 v 4.751 h -5.616 v 7.086 c 0,1.207 0.208,2.165 0.632,2.873 0.42,0.72 1.261,1.076 2.525,1.076 0.618,0 1.238,-0.055 1.893,-0.174 0.637,-0.12 1.23,-0.274 1.764,-0.476 l 0.803,4.45 c -0.687,0.277 -1.447,0.518 -2.284,0.722 -0.839,0.202 -1.87,0.307 -3.089,0.307 -1.548,0 -2.828,-0.213 -3.845,-0.634 -1.013,-0.421 -1.827,-1.012 -2.434,-1.765 -0.607,-0.748 -1.033,-1.665 -1.273,-2.739 -0.244,-1.072 -0.367,-2.255 -0.367,-3.561 z"
       fill="#ffffff"
       id="path7" />
  </mask>
  <mask
     id="mask3"
     maskUnits="userSpaceOnUse"
     x="182"
     y="150"
     width="14"
     height="28">
    <path
       fill-rule="evenodd"
       clip-rule="evenodd"
       d="m 182.565,151.676 5.675,-1.005 v 5.941 h 5.616 v 4.751 h -5.616 v 7.086 c 0,1.207 0.208,2.165 0.632,2.873 0.42,0.72 1.261,1.076 2.525,1.076 0.618,0 1.238,-0.055 1.893,-0.174 0.637,-0.12 1.23,-0.274 1.764,-0.476 l 0.803,4.45 c -0.687,0.277 -1.447,0.518 -2.284,0.722 -0.839,0.202 -1.87,0.307 -3.089,0.307 -1.548,0 -2.828,-0.213 -3.845,-0.634 -1.013,-0.421 -1.827,-1.012 -2.434,-1.765 -0.607,-0.748 -1.033,-1.665 -1.273,-2.739 -0.244,-1.072 -0.367,-2.255 -0.367,-3.561 z"
       fill="#ffffff"
       id="path9" />
  </mask>
  <mask
     id="mask4"
     maskUnits="userSpaceOnUse"
     x="233"
     y="156"
     width="17"
     height="22">
    <path
       fill-rule="evenodd"
       clip-rule="evenodd"
       d="m 236.468,157.827 c 1.396,-1.093 3.307,-1.652 5.748,-1.652 1.22,0 2.388,0.11 3.506,0.331 1.115,0.215 2.007,0.459 2.662,0.706 l -0.988,4.446 c -0.662,-0.229 -1.38,-0.431 -2.153,-0.607 -0.773,-0.181 -1.645,-0.275 -2.607,-0.275 -1.778,0 -2.667,0.502 -2.667,1.497 0,0.229 0.039,0.434 0.116,0.612 0.078,0.18 0.229,0.352 0.452,0.517 0.235,0.164 0.541,0.348 0.938,0.538 0.394,0.199 0.896,0.406 1.505,0.64 1.239,0.463 2.267,0.914 3.079,1.37 0.815,0.455 1.454,0.934 1.926,1.467 0.47,0.52 0.802,1.095 0.99,1.735 0.187,0.638 0.284,1.375 0.284,2.215 0,1.991 -0.743,3.497 -2.223,4.514 -1.488,1.014 -3.591,1.525 -6.307,1.525 -1.775,0 -3.253,-0.148 -4.432,-0.459 -1.184,-0.303 -2.001,-0.565 -2.457,-0.767 l 0.951,-4.635 c 0.961,0.383 1.959,0.679 2.968,0.902 1.022,0.219 2.016,0.329 3.013,0.329 1.038,0 1.772,-0.108 2.208,-0.31 0.433,-0.204 0.643,-0.603 0.643,-1.187 0,-0.462 -0.273,-0.864 -0.835,-1.205 -0.561,-0.348 -1.405,-0.735 -2.55,-1.175 -0.887,-0.333 -1.694,-0.676 -2.422,-1.031 -0.719,-0.361 -1.335,-0.782 -1.843,-1.282 -0.507,-0.499 -0.899,-1.096 -1.182,-1.791 -0.283,-0.684 -0.417,-1.51 -0.417,-2.486 0,-1.887 0.7,-3.384 2.094,-4.482 z"
       fill="#ffffff"
       id="path12" />
  </mask>
  <mask
     id="mask5"
     maskUnits="userSpaceOnUse"
     x="233"
     y="156"
     width="17"
     height="22">
    <path
       fill-rule="evenodd"
       clip-rule="evenodd"
       d="m 236.468,157.827 c 1.396,-1.093 3.307,-1.652 5.748,-1.652 1.22,0 2.388,0.11 3.506,0.331 1.115,0.215 2.007,0.459 2.662,0.706 l -0.988,4.446 c -0.662,-0.229 -1.38,-0.431 -2.153,-0.607 -0.773,-0.181 -1.645,-0.275 -2.607,-0.275 -1.778,0 -2.667,0.502 -2.667,1.497 0,0.229 0.039,0.434 0.116,0.612 0.078,0.18 0.229,0.352 0.452,0.517 0.235,0.164 0.541,0.348 0.938,0.538 0.394,0.199 0.896,0.406 1.505,0.64 1.239,0.463 2.267,0.914 3.079,1.37 0.815,0.455 1.454,0.934 1.926,1.467 0.47,0.52 0.802,1.095 0.99,1.735 0.187,0.638 0.284,1.375 0.284,2.215 0,1.991 -0.743,3.497 -2.223,4.514 -1.488,1.014 -3.591,1.525 -6.307,1.525 -1.775,0 -3.253,-0.148 -4.432,-0.459 -1.184,-0.303 -2.001,-0.565 -2.457,-0.767 l 0.951,-4.635 c 0.961,0.383 1.959,0.679 2.968,0.902 1.022,0.219 2.016,0.329 3.013,0.329 1.038,0 1.772,-0.108 2.208,-0.31 0.433,-0.204 0.643,-0.603 0.643,-1.187 0,-0.462 -0.273,-0.864 -0.835,-1.205 -0.561,-0.348 -1.405,-0.735 -2.55,-1.175 -0.887,-0.333 -1.694,-0.676 -2.422,-1.031 -0.719,-0.361 -1.335,-0.782 -1.843,-1.282 -0.507,-0.499 -0.899,-1.096 -1.182,-1.791 -0.283,-0.684 -0.417,-1.51 -0.417,-2.486 0,-1.887 0.7,-3.384 2.094,-4.482 z"
       fill="#ffffff"
       id="path14" />
  </mask>
  <mask
     id="mask6"
     maskUnits="userSpaceOnUse"
     x="252"
     y="156"
     width="30"
     height="21">
    <path
       fill-rule="evenodd"
       clip-rule="evenodd"
       d="m 275.487,156.715 h 5.903 c -0.561,1.996 -1.138,3.968 -1.738,5.917 -0.605,1.96 -1.182,3.811 -1.759,5.559 -0.568,1.755 -1.129,3.368 -1.675,4.854 -0.549,1.48 -1.055,2.756 -1.507,3.83 h -4.418 c -0.639,-1.941 -1.259,-3.871 -1.871,-5.789 -0.609,-1.911 -1.161,-3.844 -1.672,-5.786 -0.509,1.942 -1.045,3.875 -1.617,5.786 -0.57,1.918 -1.177,3.848 -1.804,5.789 h -4.419 c -0.458,-1.074 -0.958,-2.35 -1.491,-3.83 -0.539,-1.486 -1.088,-3.099 -1.665,-4.854 -0.571,-1.748 -1.155,-3.599 -1.752,-5.559 -0.6,-1.949 -1.182,-3.921 -1.738,-5.917 h 5.98 c 0.199,0.917 0.425,1.925 0.669,3.009 0.242,1.087 0.497,2.206 0.764,3.357 0.267,1.147 0.552,2.301 0.844,3.465 0.294,1.164 0.596,2.279 0.901,3.351 0.33,-1.123 0.654,-2.271 0.971,-3.446 0.313,-1.176 0.621,-2.332 0.915,-3.468 0.29,-1.135 0.575,-2.236 0.835,-3.297 0.265,-1.059 0.5,-2.054 0.707,-2.971 h 4.108 c 0.21,0.917 0.431,1.912 0.689,2.971 0.251,1.061 0.518,2.162 0.801,3.297 0.274,1.136 0.572,2.292 0.871,3.468 0.308,1.175 0.623,2.323 0.949,3.446 0.308,-1.072 0.613,-2.187 0.922,-3.351 0.308,-1.164 0.597,-2.318 0.862,-3.465 0.265,-1.151 0.52,-2.27 0.766,-3.357 0.244,-1.084 0.466,-2.092 0.669,-3.009 z"
       fill="#ffffff"
       id="path17" />
  </mask>
  <mask
     id="mask7"
     maskUnits="userSpaceOnUse"
     x="252"
     y="156"
     width="30"
     height="21">
    <path
       fill-rule="evenodd"
       clip-rule="evenodd"
       d="m 275.487,156.715 h 5.903 c -0.561,1.996 -1.138,3.968 -1.738,5.917 -0.605,1.96 -1.182,3.811 -1.759,5.559 -0.568,1.755 -1.129,3.368 -1.675,4.854 -0.549,1.48 -1.055,2.756 -1.507,3.83 h -4.418 c -0.639,-1.941 -1.259,-3.871 -1.871,-5.789 -0.609,-1.911 -1.161,-3.844 -1.672,-5.786 -0.509,1.942 -1.045,3.875 -1.617,5.786 -0.57,1.918 -1.177,3.848 -1.804,5.789 h -4.419 c -0.458,-1.074 -0.958,-2.35 -1.491,-3.83 -0.539,-1.486 -1.088,-3.099 -1.665,-4.854 -0.571,-1.748 -1.155,-3.599 -1.752,-5.559 -0.6,-1.949 -1.182,-3.921 -1.738,-5.917 h 5.98 c 0.199,0.917 0.425,1.925 0.669,3.009 0.242,1.087 0.497,2.206 0.764,3.357 0.267,1.147 0.552,2.301 0.844,3.465 0.294,1.164 0.596,2.279 0.901,3.351 0.33,-1.123 0.654,-2.271 0.971,-3.446 0.313,-1.176 0.621,-2.332 0.915,-3.468 0.29,-1.135 0.575,-2.236 0.835,-3.297 0.265,-1.059 0.5,-2.054 0.707,-2.971 h 4.108 c 0.21,0.917 0.431,1.912 0.689,2.971 0.251,1.061 0.518,2.162 0.801,3.297 0.274,1.136 0.572,2.292 0.871,3.468 0.308,1.175 0.623,2.323 0.949,3.446 0.308,-1.072 0.613,-2.187 0.922,-3.351 0.308,-1.164 0.597,-2.318 0.862,-3.465 0.265,-1.151 0.52,-2.27 0.766,-3.357 0.244,-1.084 0.466,-2.092 0.669,-3.009 z"
       fill="#ffffff"
       id="path19" />
  </mask>
  <mask
     id="mask8"
     maskUnits="userSpaceOnUse"
     x="285"
     y="156"
     width="7"
     height="21">
    <path
       fill-rule="evenodd"
       clip-rule="evenodd"
       d="m 285.402,176.867 v -20.155 h 5.667 v 20.155 z"
       fill="#ffffff"
       id="path22" />
  </mask>
  <mask
     id="mask9"
     maskUnits="userSpaceOnUse"
     x="285"
     y="156"
     width="7"
     height="21">
    <path
       fill-rule="evenodd"
       clip-rule="evenodd"
       d="m 285.402,176.867 v -20.155 h 5.667 v 20.155 z"
       fill="#ffffff"
       id="path24" />
  </mask>
  <mask
     id="mask10"
     maskUnits="userSpaceOnUse"
     x="295"
     y="150"
     width="14"
     height="28">
    <path
       fill-rule="evenodd"
       clip-rule="evenodd"
       d="m 295.575,151.683 5.67,-1.012 v 6.048 h 5.612 v 4.743 h -5.612 v 7.092 c 0,1.2 0.211,2.167 0.628,2.874 0.417,0.715 1.264,1.073 2.53,1.073 0.613,0 1.243,-0.051 1.886,-0.169 0.65,-0.116 1.239,-0.281 1.774,-0.481 l 0.797,4.446 c -0.687,0.283 -1.451,0.524 -2.283,0.73 -0.842,0.202 -1.862,0.305 -3.085,0.305 -1.55,0 -2.83,-0.21 -3.845,-0.636 -1.018,-0.415 -1.83,-1 -2.436,-1.761 -0.607,-0.747 -1.031,-1.668 -1.275,-2.736 -0.247,-1.076 -0.361,-2.266 -0.361,-3.565 z"
       fill="#ffffff"
       id="path27" />
  </mask>
  <mask
     id="mask11"
     maskUnits="userSpaceOnUse"
     x="295"
     y="150"
     width="14"
     height="28">
    <path
       fill-rule="evenodd"
       clip-rule="evenodd"
       d="m 295.575,151.683 5.67,-1.012 v 6.048 h 5.612 v 4.743 h -5.612 v 7.092 c 0,1.2 0.211,2.167 0.628,2.874 0.417,0.715 1.264,1.073 2.53,1.073 0.613,0 1.243,-0.051 1.886,-0.169 0.65,-0.116 1.239,-0.281 1.774,-0.481 l 0.797,4.446 c -0.687,0.283 -1.451,0.524 -2.283,0.73 -0.842,0.202 -1.862,0.305 -3.085,0.305 -1.55,0 -2.83,-0.21 -3.845,-0.636 -1.018,-0.415 -1.83,-1 -2.436,-1.761 -0.607,-0.747 -1.031,-1.668 -1.275,-2.736 -0.247,-1.076 -0.361,-2.266 -0.361,-3.565 z"
       fill="#ffffff"
       id="path29" />
  </mask>
  <mask
     id="mask12"
     maskUnits="userSpaceOnUse"
     x="310"
     y="156"
     width="18"
     height="22">
    <path
       fill-rule="evenodd"
       clip-rule="evenodd"
       d="m 316.843,157.021 c 1.266,-0.556 2.712,-0.844 4.336,-0.844 1.065,0 2.044,0.1 2.933,0.289 0.89,0.196 1.757,0.469 2.59,0.823 l -1.177,4.56 c -0.537,-0.202 -1.118,-0.378 -1.757,-0.537 -0.634,-0.151 -1.348,-0.23 -2.133,-0.23 -1.674,0 -2.926,0.527 -3.745,1.575 -0.833,1.05 -1.239,2.427 -1.239,4.141 0,1.81 0.386,3.217 1.166,4.214 0.766,0.994 2.121,1.495 4.048,1.495 0.687,0 1.42,-0.067 2.211,-0.194 0.785,-0.129 1.508,-0.33 2.174,-0.614 l 0.794,4.678 c -0.662,0.281 -1.483,0.517 -2.473,0.726 -0.994,0.202 -2.082,0.307 -3.273,0.307 -1.828,0 -3.406,-0.279 -4.722,-0.827 -1.318,-0.548 -2.406,-1.295 -3.255,-2.24 -0.855,-0.947 -1.471,-2.064 -1.865,-3.353 -0.395,-1.291 -0.592,-2.691 -0.592,-4.192 0,-1.459 0.236,-2.833 0.705,-4.122 0.47,-1.293 1.148,-2.414 2.035,-3.375 0.89,-0.959 1.966,-1.716 3.239,-2.28 z"
       fill="#ffffff"
       id="path32" />
  </mask>
  <mask
     id="mask13"
     maskUnits="userSpaceOnUse"
     x="310"
     y="156"
     width="18"
     height="22">
    <path
       fill-rule="evenodd"
       clip-rule="evenodd"
       d="m 316.843,157.021 c 1.266,-0.556 2.712,-0.844 4.336,-0.844 1.065,0 2.044,0.1 2.933,0.289 0.89,0.196 1.757,0.469 2.59,0.823 l -1.177,4.56 c -0.537,-0.202 -1.118,-0.378 -1.757,-0.537 -0.634,-0.151 -1.348,-0.23 -2.133,-0.23 -1.674,0 -2.926,0.527 -3.745,1.575 -0.833,1.05 -1.239,2.427 -1.239,4.141 0,1.81 0.386,3.217 1.166,4.214 0.766,0.994 2.121,1.495 4.048,1.495 0.687,0 1.42,-0.067 2.211,-0.194 0.785,-0.129 1.508,-0.33 2.174,-0.614 l 0.794,4.678 c -0.662,0.281 -1.483,0.517 -2.473,0.726 -0.994,0.202 -2.082,0.307 -3.273,0.307 -1.828,0 -3.406,-0.279 -4.722,-0.827 -1.318,-0.548 -2.406,-1.295 -3.255,-2.24 -0.855,-0.947 -1.471,-2.064 -1.865,-3.353 -0.395,-1.291 -0.592,-2.691 -0.592,-4.192 0,-1.459 0.236,-2.833 0.705,-4.122 0.47,-1.293 1.148,-2.414 2.035,-3.375 0.89,-0.959 1.966,-1.716 3.239,-2.28 z"
       fill="#ffffff"
       id="path34" />
  </mask>
  <mask
     id="mask14"
     maskUnits="userSpaceOnUse"
     x="330"
     y="150"
     width="18"
     height="27">
    <path
       fill-rule="evenodd"
       clip-rule="evenodd"
       d="m 330.71,151.677 5.672,-1.003 v 6.122 c 0.379,-0.127 0.865,-0.249 1.468,-0.365 0.593,-0.114 1.174,-0.174 1.731,-0.174 1.622,0 2.97,0.225 4.051,0.67 1.077,0.447 1.946,1.08 2.589,1.899 0.652,0.814 1.104,1.788 1.375,2.908 0.263,1.127 0.395,2.382 0.395,3.761 v 11.372 h -5.671 v -10.688 c 0,-1.838 -0.235,-3.14 -0.702,-3.911 -0.47,-0.758 -1.342,-1.142 -2.608,-1.142 -0.515,0 -0.985,0.045 -1.432,0.131 -0.443,0.09 -0.842,0.189 -1.196,0.29 v 15.32 h -5.672 z"
       fill="#ffffff"
       id="path37" />
  </mask>
  <mask
     id="mask15"
     maskUnits="userSpaceOnUse"
     x="330"
     y="150"
     width="18"
     height="27">
    <path
       fill-rule="evenodd"
       clip-rule="evenodd"
       d="m 330.71,151.677 5.672,-1.003 v 6.122 c 0.379,-0.127 0.865,-0.249 1.468,-0.365 0.593,-0.114 1.174,-0.174 1.731,-0.174 1.622,0 2.97,0.225 4.051,0.67 1.077,0.447 1.946,1.08 2.589,1.899 0.652,0.814 1.104,1.788 1.375,2.908 0.263,1.127 0.395,2.382 0.395,3.761 v 11.372 h -5.671 v -10.688 c 0,-1.838 -0.235,-3.14 -0.702,-3.911 -0.47,-0.758 -1.342,-1.142 -2.608,-1.142 -0.515,0 -0.985,0.045 -1.432,0.131 -0.443,0.09 -0.842,0.189 -1.196,0.29 v 15.32 h -5.672 z"
       fill="#ffffff"
       id="path39" />
  </mask>
  <mask
     id="mask16"
     maskUnits="userSpaceOnUse"
     x="159"
     y="156"
     width="19"
     height="21">
    <path
       fill-rule="evenodd"
       clip-rule="evenodd"
       d="m 159.68,158.606 c 0,0 2.851,-2.292 9.087,-2.292 5.675,0 8.791,2.854 8.791,9.137 v 11.42 h -5.668 v -11.42 c 0,-4.002 -1.989,-4.278 -3.688,-4.278 -1.7,0 -2.838,0.85 -2.838,0.85 v 14.848 h -5.684 z"
       fill="#ffffff"
       id="path42" />
  </mask>
  <mask
     id="mask17"
     maskUnits="userSpaceOnUse"
     x="159"
     y="156"
     width="19"
     height="21">
    <path
       fill-rule="evenodd"
       clip-rule="evenodd"
       d="m 159.68,158.606 c 0,0 2.851,-2.292 9.087,-2.292 5.675,0 8.791,2.854 8.791,9.137 v 11.42 h -5.668 v -11.42 c 0,-4.002 -1.989,-4.278 -3.688,-4.278 -1.7,0 -2.838,0.85 -2.838,0.85 v 14.848 h -5.684 z"
       fill="#ffffff"
       id="path44" />
  </mask>
  <mask
     id="mask18"
     maskUnits="userSpaceOnUse"
     x="149"
     y="150"
     width="6"
     height="27">
    <path
       fill-rule="evenodd"
       clip-rule="evenodd"
       d="m 149,151.677 5.675,-1.006 v 26.2 H 149 Z"
       fill="#ffffff"
       id="path47" />
  </mask>
  <mask
     id="mask19"
     maskUnits="userSpaceOnUse"
     x="149"
     y="150"
     width="6"
     height="27">
    <path
       fill-rule="evenodd"
       clip-rule="evenodd"
       d="m 149,151.677 5.675,-1.006 v 26.2 H 149 Z"
       fill="#ffffff"
       id="path49" />
  </mask>
  <mask
     id="mask20"
     maskUnits="userSpaceOnUse"
     x="197"
     y="156"
     width="20"
     height="22">
    <path
       fill-rule="evenodd"
       clip-rule="evenodd"
       d="m 197.858,166.533 c 0,-6.285 3.969,-10.276 9.642,-10.276 8.513,0 9.083,8.553 8.513,11.985 h -12.765 c 0,0 0.285,4.281 5.953,4.281 2.838,0 5.676,-0.853 5.676,-0.853 l 0.568,4.573 c 0,0 -2.835,1.132 -6.804,1.132 -5.678,0 -10.783,-2.85 -10.783,-10.842 z m 9.364,-6.285 c -3.689,0 -3.974,3.995 -3.974,3.995 h 7.938 c 0,0 -0.278,-3.995 -3.964,-3.995 z"
       fill="#ffffff"
       id="path52" />
  </mask>
  <mask
     id="mask21"
     maskUnits="userSpaceOnUse"
     x="197"
     y="156"
     width="20"
     height="22">
    <path
       fill-rule="evenodd"
       clip-rule="evenodd"
       d="m 197.858,166.533 c 0,-6.285 3.969,-10.276 9.642,-10.276 8.513,0 9.083,8.553 8.513,11.985 h -12.765 c 0,0 0.285,4.281 5.953,4.281 2.838,0 5.676,-0.853 5.676,-0.853 l 0.568,4.573 c 0,0 -2.835,1.132 -6.804,1.132 -5.678,0 -10.783,-2.85 -10.783,-10.842 z m 9.364,-6.285 c -3.689,0 -3.974,3.995 -3.974,3.995 h 7.938 c 0,0 -0.278,-3.995 -3.964,-3.995 z"
       fill="#ffffff"
       id="path54" />
  </mask>
  <mask
     id="mask22"
     maskUnits="userSpaceOnUse"
     x="355"
     y="146"
     width="38"
     height="47">
    <path
       fill-rule="evenodd"
       clip-rule="evenodd"
       d="m 355.508,150.678 c 0,-1.218 16.315,-3.846 27.258,-3.846 4.745,0 8.479,0.494 9.435,1.812 4.927,6.117 -29.758,44.494 -32.649,43.33 -2.317,-0.582 18.493,-25.009 15.024,-34.9 -1.732,-5.23 -19.068,-4.648 -19.068,-6.396 z"
       fill="#ffffff"
       id="path56" />
  </mask>
  <mask
     id="mask23"
     maskUnits="userSpaceOnUse"
     x="384"
     y="128"
     width="17"
     height="16">
    <path
       fill-rule="evenodd"
       clip-rule="evenodd"
       d="m 384.978,135.557 c 0,-4.177 3.364,-7.558 7.511,-7.558 4.151,0 7.511,3.381 7.511,7.558 0,4.18 -3.36,7.56 -7.511,7.56 -4.147,0 -7.511,-3.38 -7.511,-7.56 z"
       fill="#ffffff"
       id="path58" />
  </mask>
  <g
     id="g60"
     transform="matrix(2.6977342,0,0,2.6977342,-37.549264,-32.256835)">
    <path
       d="m 21.626757,15.082018 0.07968,-0.426532 c 0,0 -0.613642,-0.187391 -1.113132,0.160113 v 1.706409 h 0.53041 v -1.38637 c 0.211305,-0.160113 0.503039,-0.05362 0.503039,-0.05362 z"
       fill="#03435f"
       id="path1"
       style="stroke-width:0.0934149" />
    <g
       mask="url(#mask0)"
       id="g3"
       transform="scale(0.09341487)">
      <path
         d="M -125.167,233.484 H 674.392 V -831.483 h -799.559 z"
         fill="#03435f"
         id="path3" />
    </g>
    <g
       mask="url(#mask1)"
       id="g5"
       transform="scale(0.09341487)">
      <path
         d="m 210.932,185.816 h 30.953 v -38.42 h -30.953 z"
         fill="#03435f"
         id="path5" />
    </g>
    <path
       d="m 17.054193,14.168794 0.530129,-0.09388 v 0.554978 h 0.524618 v 0.443814 h -0.524618 v 0.661938 c 0,0.112751 0.01943,0.202243 0.05913,0.268381 0.03914,0.06726 0.117796,0.100514 0.235872,0.100514 0.05773,0 0.115648,-0.0051 0.176835,-0.01625 0.05941,-0.01121 0.114806,-0.0256 0.16469,-0.04447 l 0.07501,0.415697 c -0.06418,0.02588 -0.135078,0.04839 -0.213266,0.06735 -0.07847,0.01887 -0.174779,0.02877 -0.288559,0.02877 -0.144699,0 -0.264177,-0.0199 -0.359273,-0.05923 -0.09463,-0.03933 -0.170669,-0.09454 -0.227279,-0.16497 -0.0567,-0.06978 -0.09659,-0.155443 -0.11901,-0.25577 -0.0227,-0.100141 -0.03428,-0.210651 -0.03428,-0.33265 z"
       fill="#03435f"
       id="path6"
       style="stroke-width:0.0934149" />
    <g
       mask="url(#mask2)"
       id="g8"
       transform="scale(0.09341487)">
      <path
         d="M -125.167,233.48 H 674.392 V -831.487 h -799.559 z"
         fill="#03435f"
         id="path8" />
    </g>
    <g
       mask="url(#mask3)"
       id="g10"
       transform="scale(0.09341487)">
      <path
         d="m 173.046,186.176 h 32.328 v -44.455 h -32.328 z"
         fill="#03435f"
         id="path10" />
    </g>
    <path
       d="m 22.491686,16.139848 c 0.09696,0 0.165531,-0.01009 0.20626,-0.02896 0.04045,-0.01906 0.06006,-0.05633 0.06006,-0.110883 0,-0.04316 -0.02559,-0.08071 -0.078,-0.112565 -0.05241,-0.03251 -0.131248,-0.06866 -0.238208,-0.109763 -0.08286,-0.03111 -0.158338,-0.06315 -0.226251,-0.09631 -0.06717,-0.03372 -0.124709,-0.07305 -0.172163,-0.119758 -0.04736,-0.04652 -0.08398,-0.102383 -0.110417,-0.167306 -0.02644,-0.0639 -0.03895,-0.141057 -0.03895,-0.23223 0,-0.176367 0.06539,-0.316209 0.195611,-0.418685 0.130314,-0.102102 0.308923,-0.154321 0.536949,-0.154321 0.113966,0 0.223074,0.01028 0.327512,0.03092 0.104158,0.02008 0.187484,0.04297 0.248577,0.06595 l -0.0922,0.415322 c -0.06184,-0.02139 -0.128913,-0.04026 -0.201123,-0.0567 -0.0723,-0.01681 -0.153667,-0.02569 -0.243626,-0.02569 -0.165998,0 -0.249044,0.04689 -0.249044,0.139842 0,0.02139 0.0036,0.04054 0.01084,0.05717 0.0073,0.01682 0.0213,0.03288 0.04222,0.0483 0.02195,0.01532 0.05054,0.03251 0.08753,0.05026 0.0369,0.01859 0.08379,0.03783 0.140683,0.05979 0.115647,0.04325 0.211771,0.08538 0.287624,0.127978 0.07604,0.0425 0.135732,0.08725 0.179824,0.13704 0.04391,0.04857 0.07501,0.102382 0.09248,0.162074 0.01756,0.0596 0.02662,0.128446 0.02662,0.206914 0,0.185989 -0.06941,0.326579 -0.207755,0.421675 -0.138908,0.09472 -0.33536,0.142458 -0.589168,0.142458 -0.165718,0 -0.303785,-0.01383 -0.414014,-0.04288 -0.11051,-0.0283 -0.18683,-0.05278 -0.229427,-0.07165 l 0.08884,-0.432978 c 0.08968,0.03568 0.183,0.06343 0.277256,0.08426 0.09547,0.02046 0.188324,0.03073 0.281459,0.03073 z"
       fill="#03435f"
       id="path11"
       style="stroke-width:0.0934149" />
    <g
       mask="url(#mask4)"
       id="g13"
       transform="scale(0.09341487)">
      <path
         d="M -125.167,233.484 H 674.392 V -831.483 h -799.559 z"
         fill="#03435f"
         id="path13" />
    </g>
    <g
       mask="url(#mask5)"
       id="g15"
       transform="scale(0.09341487)">
      <path
         d="m 224.321,186.355 h 34.457 v -39.13 h -34.457 z"
         fill="#03435f"
         id="path15" />
    </g>
    <path
       d="m 24.918417,15.441105 c -0.04746,0.181411 -0.09753,0.361982 -0.151052,0.540592 -0.05325,0.179169 -0.109949,0.359367 -0.16852,0.540685 h -0.412707 c -0.04288,-0.100328 -0.08949,-0.219525 -0.139375,-0.357686 -0.05035,-0.138908 -0.101635,-0.289586 -0.155536,-0.453436 -0.05334,-0.163382 -0.107801,-0.336293 -0.163663,-0.519293 -0.05605,-0.182159 -0.110416,-0.366373 -0.162355,-0.552829 h 0.558715 c 0.0185,0.08575 0.03961,0.179824 0.0624,0.281179 0.02261,0.101448 0.04643,0.20598 0.07137,0.313593 0.02494,0.107147 0.05157,0.214855 0.07884,0.32359 0.02746,0.108734 0.05568,0.212892 0.08417,0.313033 0.03092,-0.104905 0.06119,-0.212052 0.0908,-0.321814 0.02914,-0.10995 0.05792,-0.217937 0.08538,-0.324057 0.02709,-0.105932 0.05371,-0.208875 0.078,-0.307988 0.02476,-0.09893 0.04671,-0.191781 0.06605,-0.277536 h 0.383748 c 0.01962,0.08575 0.04026,0.178609 0.06436,0.277536 0.02345,0.09911 0.04839,0.202056 0.07483,0.307988 0.0256,0.10612 0.05343,0.214107 0.08137,0.324057 0.02877,0.109762 0.0582,0.216909 0.08865,0.321814 0.02877,-0.100141 0.05736,-0.204299 0.08613,-0.313033 0.02877,-0.108735 0.05577,-0.216443 0.08052,-0.32359 0.02475,-0.107613 0.04858,-0.212145 0.07165,-0.313593 0.0227,-0.101355 0.04344,-0.195424 0.0624,-0.281179 h 0.551428 c -0.05241,0.186456 -0.106306,0.37067 -0.162355,0.552829 -0.05652,0.183 -0.110417,0.355911 -0.164317,0.519293 -0.05306,0.16385 -0.105465,0.314528 -0.156377,0.453436 -0.05138,0.138161 -0.09865,0.257358 -0.140869,0.357686 h -0.412707 c -0.05969,-0.181318 -0.117609,-0.361516 -0.174779,-0.540685 -0.05689,-0.17861 -0.108455,-0.359181 -0.15619,-0.540592 z"
       fill="#03435f"
       id="path16"
       style="stroke-width:0.0934149" />
    <g
       mask="url(#mask6)"
       id="g18"
       transform="scale(0.09341487)">
      <path
         d="M -125.168,233.484 H 674.391 V -831.483 h -799.559 z"
         fill="#03435f"
         id="path18" />
    </g>
    <g
       mask="url(#mask7)"
       id="g20"
       transform="scale(0.09341487)">
      <path
         d="m 242.745,185.824 h 48.164 v -38.058 h -48.164 z"
         fill="#03435f"
         id="path20" />
    </g>
    <path
       d="m 26.660791,16.521634 h 0.529382 v -1.882776 h -0.529382 z"
       fill="#03435f"
       id="path21"
       style="stroke-width:0.0934149" />
    <g
       mask="url(#mask8)"
       id="g23"
       transform="scale(0.09341487)">
      <path
         d="M -125.167,233.484 H 674.392 V -831.483 h -799.559 z"
         fill="#03435f"
         id="path23" />
    </g>
    <g
       mask="url(#mask9)"
       id="g25"
       transform="scale(0.09341487)">
      <path
         d="m 275.884,185.816 h 24.703 v -38.054 h -24.703 z"
         fill="#03435f"
         id="path25" />
    </g>
    <path
       d="m 27.611101,14.169448 0.529755,-0.09454 v 0.564973 h 0.524151 v 0.443067 h -0.524151 v 0.662498 c 0,0.112098 0.01962,0.20243 0.05857,0.268475 0.03895,0.06679 0.117983,0.100327 0.236339,0.100327 0.05726,0 0.116115,-0.0049 0.176181,-0.01588 0.06072,-0.01084 0.115741,-0.02625 0.165811,-0.04493 l 0.07436,0.415323 c -0.06418,0.02644 -0.135545,0.04895 -0.213266,0.06819 -0.07865,0.01887 -0.173938,0.02849 -0.288185,0.02849 -0.144793,0 -0.264364,-0.01962 -0.35918,-0.05941 -0.095,-0.03867 -0.170949,-0.09342 -0.227559,-0.164503 -0.0567,-0.06978 -0.09631,-0.15591 -0.119104,-0.255583 -0.02307,-0.100515 -0.03372,-0.211679 -0.03372,-0.333118 z"
       fill="#03435f"
       id="path26"
       style="stroke-width:0.0934149" />
    <g
       mask="url(#mask10)"
       id="g28"
       transform="scale(0.09341487)">
      <path
         d="M -125.167,233.484 H 674.392 V -831.483 h -799.559 z"
         fill="#03435f"
         id="path28" />
    </g>
    <g
       mask="url(#mask11)"
       id="g30"
       transform="scale(0.09341487)">
      <path
         d="m 286.057,186.281 h 32.322 v -44.56 h -32.322 z"
         fill="#03435f"
         id="path30" />
    </g>
    <path
       d="m 29.039321,15.581414 c 0,-0.136293 0.02205,-0.264645 0.06586,-0.385056 0.04391,-0.120786 0.10724,-0.225504 0.190099,-0.315182 0.08314,-0.08968 0.183654,-0.160393 0.302571,-0.213079 0.118263,-0.05194 0.253341,-0.07884 0.405047,-0.07884 0.09949,0 0.19094,0.0094 0.273986,0.02709 0.08323,0.01822 0.16413,0.04372 0.241944,0.07679 l -0.109949,0.425972 c -0.05007,-0.01887 -0.104438,-0.03531 -0.16413,-0.05016 -0.05922,-0.01401 -0.125923,-0.02139 -0.19916,-0.02139 -0.15647,0 -0.273426,0.04914 -0.349932,0.147035 -0.07782,0.09809 -0.115741,0.226718 -0.115741,0.386831 0,0.169081 0.03606,0.300515 0.108921,0.39365 0.07156,0.09285 0.198133,0.139655 0.378237,0.139655 0.06408,0 0.132556,-0.0063 0.206447,-0.01812 0.07333,-0.01205 0.14087,-0.03083 0.203084,-0.05736 l 0.07417,0.436995 c -0.06184,0.02625 -0.138534,0.04839 -0.231015,0.06782 -0.09285,0.01887 -0.194583,0.02868 -0.305747,0.02868 -0.170668,0 -0.318171,-0.02606 -0.441105,-0.07725 -0.12312,-0.05119 -0.224756,-0.120972 -0.304065,-0.209249 -0.07987,-0.08846 -0.137413,-0.192808 -0.174219,-0.31322 -0.0369,-0.120599 -0.0553,-0.251379 -0.0553,-0.391595 z"
       fill="#03435f"
       id="path31"
       style="stroke-width:0.0934149" />
    <g
       mask="url(#mask12)"
       id="g33"
       transform="scale(0.09341487)">
      <path
         d="M -125.167,233.484 H 674.392 V -831.483 h -799.559 z"
         fill="#03435f"
         id="path33" />
    </g>
    <g
       mask="url(#mask13)"
       id="g35"
       transform="scale(0.09341487)">
      <path
         d="m 301.346,186.359 h 35.216 v -39.132 h -35.216 z"
         fill="#03435f"
         id="path35" />
    </g>
    <path
       d="m 30.893232,16.522008 v -2.35312 l 0.529943,-0.0937 v 0.571886 c 0.03531,-0.01186 0.08071,-0.02326 0.137039,-0.0341 0.0554,-0.01065 0.109669,-0.01625 0.161702,-0.01625 0.151519,0 0.277442,0.02102 0.378423,0.06259 0.100608,0.04176 0.181786,0.100888 0.241851,0.177301 0.06091,0.07613 0.10313,0.167119 0.128446,0.271744 0.02457,0.105278 0.0369,0.222514 0.0369,0.351333 v 1.062314 H 31.977779 V 15.52359 c 0,-0.171697 -0.02195,-0.293323 -0.06558,-0.365346 -0.04391,-0.07081 -0.125363,-0.106679 -0.243626,-0.106679 -0.04811,0 -0.09201,0.0042 -0.13377,0.01224 -0.04138,0.0084 -0.07866,0.01765 -0.111631,0.02709 v 1.431116 z"
       fill="#03435f"
       id="path36"
       style="stroke-width:0.0934149" />
    <g
       mask="url(#mask14)"
       id="g38"
       transform="scale(0.09341487)">
      <path
         d="M -125.167,233.484 H 674.392 V -831.483 h -799.559 z"
         fill="#03435f"
         id="path38" />
    </g>
    <g
       mask="url(#mask15)"
       id="g40"
       transform="scale(0.09341487)">
      <path
         d="m 321.191,185.816 h 36.318 v -44.091 h -36.318 z"
         fill="#03435f"
         id="path40" />
    </g>
    <path
       d="m 14.916487,16.522382 v -1.706223 c 0,0 0.266326,-0.214107 0.848861,-0.214107 0.530129,0 0.821303,0.2667 0.821303,0.853532 v 1.066798 h -0.529569 v -1.066798 c 0,-0.373753 -0.185802,-0.399629 -0.344514,-0.399629 -0.158805,0 -0.265111,0.0794 -0.265111,0.0794 v 1.387024 z"
       fill="#03435f"
       id="path41"
       style="stroke-width:0.0934149" />
    <g
       mask="url(#mask16)"
       id="g43"
       transform="scale(0.09341487)">
      <path
         d="M -125.167,233.48 H 674.392 V -831.487 h -799.559 z"
         fill="#03435f"
         id="path43" />
    </g>
    <g
       mask="url(#mask17)"
       id="g45"
       transform="scale(0.09341487)">
      <path
         d="m 150.161,185.82 h 36.915 v -38.455 h -36.915 z"
         fill="#03435f"
         id="path45" />
    </g>
    <path
       d="m 13.918816,16.522382 v -2.353494 l 0.530129,-0.09398 v 2.44747 z"
       fill="#03435f"
       id="path46"
       style="stroke-width:0.0934149" />
    <g
       mask="url(#mask18)"
       id="g48"
       transform="scale(0.09341487)">
      <path
         d="M -125.167,233.48 H 674.392 V -831.487 h -799.559 z"
         fill="#03435f"
         id="path48" />
    </g>
    <g
       mask="url(#mask19)"
       id="g50"
       transform="scale(0.09341487)">
      <path
         d="m 139.481,185.82 h 24.713 v -44.098 h -24.713 z"
         fill="#03435f"
         id="path50" />
    </g>
    <path
       fill-rule="evenodd"
       clip-rule="evenodd"
       d="m 18.986292,15.716398 h 1.192441 c 0.05325,-0.320693 0,-1.119577 -0.795147,-1.119577 -0.530036,0 -0.9008,0.372725 -0.9008,0.959838 0,0.746571 0.476883,1.012804 1.007293,1.012804 0.370763,0 0.635595,-0.105746 0.635595,-0.105746 l -0.05306,-0.427186 c 0,0 -0.265018,0.07968 -0.530129,0.07968 -0.529569,0 -0.556193,-0.399816 -0.556193,-0.399816 z m 0,-0.373659 c 0,0 0.02662,-0.373193 0.371231,-0.373193 0.344327,0 0.370297,0.373193 0.370297,0.373193 z"
       fill="#03435f"
       id="path51"
       style="stroke-width:0.0934149" />
    <g
       mask="url(#mask20)"
       id="g53"
       transform="scale(0.09341487)">
      <path
         d="M -125.167,233.484 H 674.392 V -831.483 h -799.559 z"
         fill="#03435f"
         id="path53" />
    </g>
    <g
       mask="url(#mask21)"
       id="g55"
       transform="scale(0.09341487)">
      <path
         d="m 188.34,186.324 h 37.35 v -39.016 h -37.35 z"
         fill="#03435f"
         id="path55" />
    </g>
    <g
       mask="url(#mask22)"
       id="g57"
       transform="scale(0.09341487)">
      <path
         d="m 345.989,200.949 h 56.208 v -63.067 h -56.208 z"
         fill="#ed342b"
         id="path57" />
    </g>
    <g
       mask="url(#mask23)"
       id="g59"
       transform="scale(0.09341487)">
      <path
         d="m 375.459,152.066 h 34.06 v -33.017 h -34.06 z"
         fill="#ed342b"
         id="path59" />
    </g>
  </g>
</svg>
